<svg xmlns="http://www.w3.org/2000/svg" width="88" height="90">
    <path fill="#F87907" fill-rule="evenodd" d="M88 65.566l.001.001-.001.001v.12h-.216L43.999 89.999.215 65.688H0v-.12l-.003-.001.003-.002v-5.128h9.236l34.763-19.301 34.764 19.301H88v5.129z"/>
    <path fill="#F87907" fill-rule="evenodd" d="M43.999 35.993l44.002 24.305-44.002 24.305L-.003 60.298l44.002-24.305z"/>
    <path fill="#F87907" fill-rule="evenodd" d="M88 47.839l.001.001-.001.001v.128h-.231l-43.77 24.302L.229 47.969H0v-.128l-.003-.001.003-.002v-5.119h9.221l34.778-19.31 34.778 19.31H88v5.12z"/>
    <path fill="#F87907" fill-rule="evenodd" d="M43.999 18.182l44.002 24.431-44.002 24.431L-.003 42.613l44.002-24.431z"/>
    <path fill="#F87907" fill-rule="evenodd" d="M88 29.657l.001.001H88v.092h-.165L43.999 54.089.163 29.75H0v-.091l-.003-.001.003-.002v-5.093h9.174L43.999 5.227l34.825 19.336H88v5.094z"/>
    <path fill="#F87907" fill-rule="evenodd" d="M43.999 0l44.002 24.43-44.002 24.432L-.003 24.43 43.999 0z"/>
    <path fill="#FFF" fill-rule="evenodd" d="M34.308 15.92c.001-.262.17-.523.339-.654.17-.13.508-.261.846-.262l2.367-.002c.676-.001 1.182.39 1.181.912v.131l-.352 7.438c-.001.262.252.457.591.456l23.074-.351.084.065c.677-.001 1.183.39 1.182.912l-.003 1.827c-.001.521-.509.914-1.185.915l-27.554.422c-.339.001-.592-.065-.845-.26s-.338-.391-.337-.653l.527-10.571.085-.325z"/>
</svg>
