<svg xmlns="http://www.w3.org/2000/svg" width="82" height="91">
    <path fill="#F87907" fill-rule="evenodd" d="M0 22.744l40.993 23.35V91L0 67.649V22.744z"/>
    <path fill="#F87907" fill-rule="evenodd" d="M81.987 22.744l-40.994 23.35V91l40.994-23.351V22.744z"/>
    <path fill="#C5C4F3" fill-rule="evenodd" d="M-.005 23.152l41.574 23.259 40.44-23.161L40.434-.009-.005 23.152z"/>
    <path fill="#fff" fill-rule="evenodd" d="M14.586 75.544l-2.729-1.521v-31L0 36.276V33.66l14.586 8.3v33.584z"/>
    <path fill="#fff" fill-rule="evenodd" d="M70.143 43.023v31l-2.729 1.521V41.96L82 33.66v2.616l-11.857 6.747z"/>
    <path fill="#fff" fill-rule="evenodd" d="M41 71.018v2.679l-14.586-8.456v16.672l-2.73-1.526v-33.08l.018.011 2.712 1.515v.06L41 57.368v2.686l-14.586-8.475v10.983L41 71.018z"/>
    <path fill="#fff" fill-rule="evenodd" d="M55.652 64.905v-.237L41 72.792v-2.563l14.652-8.123V51.854L41 59.977v-2.563l14.652-8.124V38.808l2.664-1.506v26.096l-2.664 1.507z"/>
    <path fill="#fff" fill-rule="evenodd" d="M57.41 10.667l-7.45 4.262.153.095-2.224 1.342-.212-.131-8.752 5.005.264.164-2.228 1.343-.321-.199-.335.191-2.597-1.568.368-.21-14.039-8.69 2.229-1.342 14.095 8.725 8.754-5.007-14.124-8.756 2.224-1.343 14.183 8.793L54.813 9.1l2.597 1.567z"/>
</svg>
