<svg xmlns="http://www.w3.org/2000/svg" width="267" height="277">
    <path fill="#F87907" fill-rule="evenodd" d="M175.639 184.257c53.66-17.442 93.515-13.231 89.019 9.405-4.495 22.637-51.639 55.127-105.298 72.569s-93.514 13.231-89.019-9.405c4.495-22.637 51.639-55.127 105.298-72.569z" opacity=".302"/>
    <path fill="#B4CFF0" fill-rule="evenodd" d="M151.5 157h1a9 9 0 0 1 9 9v74a9 9 0 0 1-9 9h-1a9 9 0 0 1-9-9v-74a9 9 0 0 1 9-9z"/>
    <path fill="#E3EFFD" fill-rule="evenodd" d="M266.459 137.527l-131.387 75.421L47.676 78.75 177.563 4.332c9.173-6.01 23.188-5.123 38.901 4.005C244.098 24.39 266.5 59.822 266.5 87.477v50.074l-.041-.024z"/>
    <path fill="#B4CFF0" fill-rule="evenodd" d="M85.036 83.781c27.634 16.053 50.036 51.485 50.036 79.14v50.074L35 154.863v-50.074c0-27.655 22.402-37.061 50.036-21.008z"/>
    <path fill="#C6DDF9" fill-rule="evenodd" d="M135.072 212.995l-99.534-57.82 78.469-45.304c12.744 16.479 21.065 36.204 21.065 53.05v50.074z"/>
    <path fill="#B4CFF0" fill-opacity="0" fill-rule="evenodd" stroke="#EFF6FD" stroke-width="6" d="M85.036 83.781c27.634 16.053 50.036 51.485 50.036 79.14v50.074L35 154.863v-50.074c0-27.655 22.402-37.061 50.036-21.008z"/>
    <path fill="#F87907" fill-rule="evenodd" d="M199.335 57.716l-1.218-.703v29.382c0 2.95-2.389 6.721-5.337 8.423l-27.352 15.797h-.001c-2.947 1.703-5.337 5.474-5.337 8.424v32.047c0 1.278-.483 2.719-1.27 4.059l2.601 1.503-3.783 6.557-6.551-3.786.054-.093c-.661-.467-1.058-1.302-1.058-2.461V77.749c0-2.765 2.24-6.301 5.003-7.897.057-.033.112-.058.169-.089.055-.034.109-.071.165-.104l37.36-21.576c1.457-.841 2.776-1.018 3.739-.627l.047-.082 6.552 3.786-3.783 6.556zm-39.245 55.982l3.967-2.291-3.967 2.291z"/>
    <path fill="#F87907" fill-rule="evenodd" d="M199.452 98.824L172.1 114.62l-.001.001c-2.948 1.702-5.338 5.474-5.338 8.424v32.047c0 2.765-2.24 6.301-5.003 7.897-2.764 1.596-5.004.648-5.004-2.118V81.755c0-2.766 2.24-6.301 5.004-7.897.056-.032.11-.057.165-.087.057-.034.112-.073.168-.106l37.361-21.576c2.947-1.703 5.337-.692 5.337 2.258V90.4c0 2.95-2.39 6.722-5.337 8.424zm-32.691 18.879v.001l3.971-2.294-3.971 2.293zM128.606 169.676l-60.881 35.405c-2.968 1.726-7.461 1.916-10.035.424L1.748 173.083c-2.575-1.492-2.256-4.101.712-5.827l78.814-45.835c2.968-1.727 7.461-1.916 10.036-.424l33.688 19.525c2.053 6.443 3.472 15.437 3.608 29.154z"/>
    <path fill="#FFF" fill-rule="evenodd" d="M45.656 174.612c-6.43 3.74-16.165 4.151-21.744.918-5.578-3.233-4.887-8.886 1.543-12.626 6.43-3.739 16.165-4.15 21.744-.917 5.578 3.233 4.887 8.886-1.543 12.625zm-2.04-10.541c-3.862-2.238-10.602-1.954-15.053.635-4.452 2.589-4.93 6.502-1.068 8.74 3.862 2.239 10.601 1.954 15.053-.635s4.93-6.502 1.068-8.74z"/>
    <path fill="#FFF" fill-rule="evenodd" d="M78.595 167.184l34.929-20.313c1.237-.72 3.109-.798 4.182-.177 1.072.622.94 1.709-.297 2.428L82.48 169.436c-1.237.719-3.109.798-4.182.176-1.072-.622-.94-1.708.297-2.428z" opacity=".8"/>
    <path fill="#FFF" fill-rule="evenodd" d="M128.309 160.826l-30.29 17.616c-1.236.719-3.108.798-4.181.176-1.073-.622-.94-1.709.296-2.427l33.841-19.681c.128 1.377.243 2.801.334 4.316z" opacity=".2"/>
    <path fill="#FFF" fill-rule="evenodd" d="M86.365 171.687l13.434-7.813c1.237-.719 3.109-.797 4.181-.176 1.073.622.94 1.709-.296 2.428l-13.434 7.813c-1.237.719-3.109.798-4.182.176-1.073-.621-.94-1.708.297-2.428z" opacity=".6"/>
    <path fill="#FFF" fill-rule="evenodd" d="M107.86 159.187l13.434-7.813c1.236-.719 3.109-.798 4.181-.176 1.073.621.94 1.708-.296 2.427l-13.435 7.813c-1.236.72-3.108.798-4.181.177-1.073-.622-.94-1.709.297-2.428z" opacity=".4"/>
</svg>
