<svg xmlns="http://www.w3.org/2000/svg" width="73" height="91">
    <path fill="#F87907" fill-rule="evenodd" d="M13.423.303l53.458 17.472C70.261 18.88 73 22.663 73 26.225v55.446c0 3.562-2.739 5.554-6.119 4.45L13.423 68.649c-3.38-1.105-6.119-4.888-6.119-8.45V4.753c0-3.562 2.739-5.555 6.119-4.45z"/>
    <path fill="#C5C4F3" fill-rule="evenodd" d="M6.121 4.822l53.458 17.484c3.38 1.105 6.119 4.891 6.119 8.456v55.481c0 3.565-2.739 5.559-6.119 4.454L6.121 73.213C2.741 72.108.002 68.322.002 64.758V9.275c0-3.564 2.739-5.558 6.119-4.453z" opacity=".702"/>
    <path fill="#FFF" fill-rule="evenodd" d="M47.151 38.789c-6.52-2.073-11.516-5.539-15.74-11.025-4.224 2.801-9.219 3.091-15.739 1.019 0 10.788-2.213 25.537 15.739 37.519 17.954-.569 15.74-16.725 15.74-27.513zM30.107 52.354l-5.243-6.956 2.347-1.621 2.896 3.842 5.504-3.802 2.348 3.114-7.852 5.423z"/>
</svg>
