<?xml version="1.0" encoding="utf-8"?>
<!-- Generator: Adobe Illustrator 24.1.0, SVG Export Plug-In . SVG Version: 6.00 Build 0)  -->
<svg version="1.1" xmlns="http://www.w3.org/2000/svg" xmlns:xlink="http://www.w3.org/1999/xlink" x="0px" y="0px"
	 viewBox="0 0 2475 1650" style="enable-background:new 0 0 2475 1650;" xml:space="preserve">
<style type="text/css">
	.st0{display:none;}
	.st1{display:inline;fill:#FFFFFF;}
	.st2{fill:url(#SVGID_1_);}
	.st3{fill:#91B3FA;}
	.st4{fill:#BDD0FB;}
	.st5{fill:url(#SVGID_2_);}
	.st6{fill:url(#SVGID_3_);}
	.st7{fill:url(#SVGID_4_);}
	.st8{fill:url(#SVGID_5_);}
	.st9{fill:url(#SVGID_6_);}
	.st10{opacity:0.24;}
	.st11{fill:url(#SVGID_7_);}
	.st12{fill:url(#SVGID_8_);}
	.st13{fill:url(#SVGID_9_);}
	.st14{fill:url(#SVGID_10_);}
	.st15{fill:url(#SVGID_11_);}
	.st16{fill:url(#SVGID_12_);}
	.st17{fill:url(#SVGID_13_);}
	.st18{fill:url(#SVGID_14_);}
	.st19{fill:url(#SVGID_15_);}
	.st20{fill:url(#SVGID_16_);}
	.st21{fill:url(#SVGID_17_);}
	.st22{opacity:0.64;}
	.st23{fill:url(#SVGID_18_);}
	.st24{fill:url(#SVGID_19_);}
	.st25{fill:url(#SVGID_20_);}
	.st26{fill:url(#SVGID_21_);}
	.st27{fill:url(#SVGID_22_);}
	.st28{fill:url(#SVGID_23_);}
	.st29{fill:url(#SVGID_24_);}
	.st30{fill:url(#SVGID_25_);}
	.st31{fill:url(#SVGID_26_);}
	.st32{fill:url(#SVGID_27_);}
	.st33{fill:url(#SVGID_28_);}
	.st34{fill:url(#SVGID_29_);}
	.st35{fill:url(#SVGID_30_);}
	.st36{fill:url(#SVGID_31_);}
	.st37{fill:url(#SVGID_32_);}
	.st38{fill:url(#SVGID_33_);}
	.st39{fill:url(#SVGID_34_);}
	.st40{fill:url(#SVGID_35_);}
	.st41{fill:url(#SVGID_36_);}
	.st42{fill:url(#SVGID_37_);}
	.st43{fill:url(#SVGID_38_);}
	.st44{fill:url(#SVGID_39_);}
	.st45{fill:url(#SVGID_40_);}
	.st46{fill:url(#SVGID_41_);}
	.st47{fill:url(#SVGID_42_);}
	.st48{fill:url(#SVGID_43_);}
	.st49{fill:url(#SVGID_44_);}
	.st50{fill:url(#SVGID_45_);}
	.st51{fill:url(#SVGID_46_);}
	.st52{fill:url(#SVGID_47_);}
	.st53{fill:url(#SVGID_48_);}
	.st54{fill:url(#SVGID_49_);}
	.st55{fill:url(#SVGID_50_);}
	.st56{fill:url(#SVGID_51_);}
	.st57{fill:url(#SVGID_52_);}
	.st58{fill:url(#SVGID_53_);}
	.st59{fill:url(#SVGID_54_);}
	.st60{fill:url(#SVGID_55_);}
	.st61{fill:url(#SVGID_56_);}
	.st62{fill:url(#SVGID_57_);}
	.st63{fill:url(#SVGID_58_);}
	.st64{fill:url(#SVGID_59_);}
	.st65{fill:url(#SVGID_60_);}
	.st66{fill:url(#SVGID_61_);}
	.st67{fill:url(#SVGID_62_);}
	.st68{fill:url(#SVGID_63_);}
	.st69{fill:url(#SVGID_64_);}
	.st70{fill:url(#SVGID_65_);}
	.st71{fill:url(#SVGID_66_);}
	.st72{fill:url(#SVGID_67_);}
	.st73{fill:url(#SVGID_68_);}
	.st74{fill:url(#SVGID_69_);}
	.st75{fill:url(#SVGID_70_);}
	.st76{fill:url(#SVGID_71_);}
	.st77{fill:#7D97F4;}
	.st78{fill:url(#SVGID_72_);}
	.st79{fill:url(#SVGID_73_);}
	.st80{fill:url(#SVGID_74_);}
	.st81{fill:url(#SVGID_75_);}
	.st82{fill:url(#SVGID_76_);}
	.st83{fill:url(#SVGID_77_);}
	.st84{fill:url(#SVGID_78_);}
	.st85{fill:url(#SVGID_79_);}
	.st86{fill:url(#SVGID_80_);}
	.st87{fill:url(#SVGID_81_);}
	.st88{fill:url(#SVGID_82_);}
	.st89{fill:url(#SVGID_83_);}
	.st90{fill:url(#SVGID_84_);}
	.st91{fill:url(#SVGID_85_);}
	.st92{fill:url(#SVGID_86_);}
	.st93{fill:url(#SVGID_87_);}
	.st94{fill:url(#SVGID_88_);}
	.st95{fill:url(#SVGID_89_);}
	.st96{fill:url(#SVGID_90_);}
	.st97{fill:url(#SVGID_91_);}
	.st98{fill:url(#SVGID_92_);}
	.st99{fill:url(#SVGID_93_);}
	.st100{fill:url(#SVGID_94_);}
	.st101{fill:url(#SVGID_95_);}
	.st102{fill:url(#SVGID_96_);}
	.st103{fill:url(#SVGID_97_);}
	.st104{fill:url(#SVGID_98_);}
	.st105{fill:url(#SVGID_99_);}
	.st106{fill:url(#SVGID_100_);}
	.st107{fill:url(#SVGID_101_);}
	.st108{fill:url(#SVGID_102_);}
	.st109{fill:url(#SVGID_103_);}
	.st110{fill:url(#SVGID_104_);}
	.st111{fill:url(#SVGID_105_);}
</style>
<g id="Background" class="st0">
	<rect class="st1" width="2475" height="1650"/>
</g>
<g id="Illustration">
	<g>
		<linearGradient id="SVGID_1_" gradientUnits="userSpaceOnUse" x1="110.6168" y1="825.6684" x2="2306.5728" y2="825.6684">
			<stop  offset="0" style="stop-color:#DAE3FE"/>
			<stop  offset="1" style="stop-color:#E9EFFD"/>
		</linearGradient>
		<path class="st2" d="M1189.6,1498.5c0,0-745.6,8.4-953.3-180.9c-207.7-189.3-129.5-378,29.5-431.4c159-53.5,186.1-109,100.6-184
			c-85.6-75-194.2-228.9-13.8-383.6c180.4-154.7,386.3,67.5,547.6,38c161.3-29.5,97.4-128.9,309.5-60.2
			C1421.8,365,1375,165.1,1545.5,147c170.5-18.1,153,207.8,328.4,122.5c175.4-85.3,318.8-73.5,394.2,61.9s42.6,317.9-122.8,426.6
			c-165.4,108.7-147.7,101.3-85.8,208.1c61.8,106.8,117.3,458.1-164.2,508.3C1613.9,1524.7,1189.6,1498.5,1189.6,1498.5z"/>
		<g>
			<path class="st3" d="M708.2,1183c0,0-126.1-532.6-387.5-823.1c-17.6-19.5-49.8-12-56.7,13.3C217.6,542.7,128.5,1056.6,708.2,1183
				z"/>
			<path class="st4" d="M655.1,1148.7c1.3,1.3-0.4,3.3-1.9,2.2c-53.8-40-261.7-236.6-338.5-628.3c-0.2-1.3,1.6-1.7,2-0.5
				C342.8,612.9,449.6,947.7,655.1,1148.7z"/>
		</g>
		<g>
			<path class="st4" d="M670.3,775c0,0,50.3-383.2-49.4-640.6c-6.7-17.3-29.8-20.4-40.8-5.4C506.9,229.1,319.3,546.1,670.3,775z"/>
			<linearGradient id="SVGID_2_" gradientUnits="userSpaceOnUse" x1="562.3096" y1="490.0674" x2="643.992" y2="490.0674">
				<stop  offset="0" style="stop-color:#DAE3FE"/>
				<stop  offset="1" style="stop-color:#E9EFFD"/>
			</linearGradient>
			<path class="st5" d="M643.9,739c0.5,1.2-1.1,2.1-1.8,1c-25.5-39.9-113.5-221.8-65.9-499.7c0.2-0.9,1.5-0.7,1.4,0.2
				C572.1,306.9,558.6,554.7,643.9,739z"/>
		</g>
		<g>
			<path class="st4" d="M164.7,938.3c-2.5-1.6-1.2-5.4,1.7-5.1c46.9,5.1,217.3,34,345.2,191.3c117,144,175.5,264.1,195.5,309.7
				c3.9,9-3.3,18.9-13.1,18c-58-5.8-219.7-30.5-287.3-129.1C325.9,1205.2,284.7,1012.4,164.7,938.3z"/>
			<linearGradient id="SVGID_3_" gradientUnits="userSpaceOnUse" x1="302.3701" y1="1227.7128" x2="694.8692" y2="1227.7128">
				<stop  offset="0" style="stop-color:#DAE3FE"/>
				<stop  offset="1" style="stop-color:#E9EFFD"/>
			</linearGradient>
			<path class="st6" d="M302.4,1019.8c0,0,152.6,57.6,392.5,415.9C694.9,1435.7,434.7,1088.3,302.4,1019.8z"/>
		</g>
		<g>
			<path class="st4" d="M1855.9,1446.1c0,0,147.9-63.7,186.1-253.2c37.1-184.2,46.3-443.5,256.8-512.3c7.1-2.3,13.5,4.9,10.4,11.7
				c-18.6,40-62.7,144.6-74.5,257.7C2219.7,1094.3,2111.1,1433.7,1855.9,1446.1z"/>
			<linearGradient id="SVGID_4_" gradientUnits="userSpaceOnUse" x1="1973.9725" y1="1071.7616" x2="2259.926" y2="1071.7616">
				<stop  offset="0" style="stop-color:#DAE3FE"/>
				<stop  offset="1" style="stop-color:#E9EFFD"/>
			</linearGradient>
			<path class="st7" d="M2256.4,754.4l-0.7,0.5c-0.3,0.2-0.7,0.5-1,0.7c-0.7,0.5-1.4,1.1-2.1,1.6c-1.4,1.1-2.8,2.3-4.2,3.5
				c-2.7,2.4-5.4,4.9-8,7.4c-5.2,5.2-10.2,10.6-14.9,16.3c-4.7,5.7-9.1,11.7-13.2,17.8c-4.2,6.1-8,12.5-11.7,18.9
				c-14.4,25.9-24.6,54.3-31,83.4c-3.2,14.6-5.4,29.4-6.8,44.3l-0.9,11.2l-0.5,11.2l-0.5,11.5c-0.2,3.9-0.4,7.7-0.7,11.5
				c-2,30.8-6.2,61.3-12.3,91.5c-6.1,30.2-14.1,59.9-23.9,89c-5,14.5-10.5,28.9-16.5,43c-6,14.1-12.5,28-19.5,41.7
				c-7.1,13.6-14.7,27-22.8,40c-8.1,13-17,25.5-26.4,37.6c-9.4,12.1-19.5,23.6-30.3,34.5c-10.8,10.9-22.3,21-34.5,30.2
				c11.8-9.7,22.8-20.3,33.1-31.5c10.3-11.2,20-23,28.8-35.3c8.9-12.3,17.2-25.1,24.9-38.2c7.6-13.1,14.8-26.5,21.4-40.2
				c6.5-13.7,12.5-27.6,18.1-41.8c5.4-14.2,10.5-28.5,15-42.9c9.1-28.9,16.3-58.4,21.6-88.2c5.3-29.8,8.8-59.9,10.1-90.1
				c0.4-7.6,0.4-15,0.7-22.7l0.4-11.6l0.8-11.6c1.3-15.5,3.4-30.9,6.5-46.2c3.2-15.3,7.2-30.4,12.6-45c5.4-14.7,11.9-29,19.6-42.6
				c7.7-13.7,16.5-26.7,26.7-38.7c5.1-6,10.5-11.8,16.2-17.3c2.9-2.7,5.8-5.4,8.9-7.9c1.5-1.3,3.1-2.5,4.7-3.7
				c0.8-0.6,1.6-1.2,2.5-1.8c0.4-0.3,0.9-0.6,1.3-0.9l0.7-0.5l0.9-0.6c3.2-2,7.4-1,9.4,2.3c1.9,3.1,1,7.1-1.9,9.1L2256.4,754.4z"/>
		</g>
		<g>
			<g>
				<linearGradient id="SVGID_5_" gradientUnits="userSpaceOnUse" x1="1080.8065" y1="1396.7882" x2="1448.3225" y2="294.237">
					<stop  offset="0" style="stop-color:#09005D"/>
					<stop  offset="1" style="stop-color:#1A0F91"/>
				</linearGradient>
				<path class="st8" d="M2029.8,1436.8c0,15.8-12.9,28.7-28.8,28.7H444.9c-15.8,0-28.8-12.9-28.8-28.7l-12.9-894.2
					c0-15.8,18.6-46.7,52.8-44.4l1520.8-39.4c19.9-0.5,39.1,7.1,53.1,21.1c14.1,14,21.8,33.2,21.3,53L2029.8,1436.8z"/>
				<linearGradient id="SVGID_6_" gradientUnits="userSpaceOnUse" x1="1092.9495" y1="1583.7712" x2="1353.9747" y2="407.6542">
					<stop  offset="0" style="stop-color:#4042E2"/>
					<stop  offset="1" style="stop-color:#4F52FF"/>
				</linearGradient>
				<path class="st9" d="M2001.4,1409.2c0,15-12.3,27.2-27.2,27.2H482.4c-15,0-27.2-12.3-27.2-27.2L443,597.4
					c1.4-48.9,44.3-66.4,70.2-65.4l1457.5-39.1c14-0.4,27.4,5,37.3,14.9c9.9,9.9,15.3,23.3,15,37.3L2001.4,1409.2z"/>
				<g>
					<path class="st3" d="M471.3,1021.5c-1.1,0-2-0.9-2-1.9l-1-65.8c0-1.1,0.9-2,1.9-2c1.1,0,2,0.9,2,1.9l1,65.8
						C473.3,1020.6,472.4,1021.5,471.3,1021.5C471.3,1021.5,471.3,1021.5,471.3,1021.5z"/>
					<path class="st3" d="M468.9,860.2c-1.1,0-2-0.9-2-1.9l-3.7-252.2c0.1-16.8,5.2-30.2,15.4-39.9c18.4-17.6,47.2-16.7,48.4-16.7
						L992.5,537c0,0,0,0,0.1,0c1.1,0,1.9,0.9,2,1.9c0,1.1-0.8,2-1.9,2l-465.6,12.5c-1.3-0.1-28.5-0.9-45.7,15.6
						c-9.3,8.9-14.1,21.4-14.1,37l3.7,252.1C470.9,859.3,470.1,860.2,468.9,860.2C469,860.2,469,860.2,468.9,860.2z"/>
				</g>
				<g class="st10">
					<path class="st3" d="M520.9,1364.2c1.6-67.1,1-661.3-2.9-712.6c-3.8-51.3,76.1-60.9,198.8-66.7
						c122.7-5.8,1158-28.6,1184.6-30.8c59.9-4.9,72.3,84.7,66.3,279.1c-4.5,146.1-12,386.7-15.4,497.3c-1,32.9-28,59.1-60.9,59.2
						c-249.1,0.7-1203.9,3.4-1267.5,5.3C550.8,1397.2,520.3,1390.8,520.9,1364.2z"/>
				</g>
			</g>
			<linearGradient id="SVGID_7_" gradientUnits="userSpaceOnUse" x1="1216.7266" y1="685.9061" x2="1228.7281" y2="1114.9528">
				<stop  offset="0" style="stop-color:#09005D"/>
				<stop  offset="1" style="stop-color:#1A0F91"/>
			</linearGradient>
			<path class="st11" d="M2148.5,1511.2H328.9c-4.1,0-7.5-3.4-7.5-7.5v-63.6c0-4.1,3.4-7.5,7.5-7.5h1819.6c4.1,0,7.5,3.4,7.5,7.5
				v63.6C2156,1507.8,2152.6,1511.2,2148.5,1511.2z"/>
			<g>
				<rect x="633.4" y="1134.9" class="st3" width="62.9" height="272"/>
				<rect x="738.4" y="1228.4" class="st3" width="62.9" height="178.5"/>
				<rect x="843.5" y="997.4" class="st3" width="62.9" height="409.6"/>
				<rect x="948.5" y="1308.6" class="st3" width="62.9" height="98.4"/>
				<rect x="1053.6" y="1052.1" class="st3" width="62.9" height="354.9"/>
				<rect x="1158.6" y="1113.6" class="st3" width="62.9" height="293.4"/>
				<rect x="1263.7" y="1180.3" class="st3" width="62.9" height="226.6"/>
				<rect x="1368.7" y="914.5" class="st3" width="62.9" height="492.4"/>
				<rect x="1473.7" y="966.6" class="st3" width="62.9" height="440.3"/>
				<rect x="1578.8" y="1045.4" class="st3" width="62.9" height="361.5"/>
				<rect x="1683.8" y="1317.7" class="st3" width="62.9" height="89.3"/>
				<rect x="1788.9" y="1144.3" class="st3" width="62.9" height="262.7"/>
			</g>
		</g>
		<g>
			<linearGradient id="SVGID_8_" gradientUnits="userSpaceOnUse" x1="2028.5753" y1="351.0757" x2="1818.5546" y2="804.1207">
				<stop  offset="0" style="stop-color:#09005D"/>
				<stop  offset="1" style="stop-color:#1A0F91"/>
			</linearGradient>
			<path class="st12" d="M1608.9,1508c2.3,0,4.1-1.9,4.1-4.1v-494.8c0-2.3-1.9-4.1-4.1-4.1c-2.3,0-4.1,1.9-4.1,4.1v494.8
				C1604.7,1506.2,1606.6,1508,1608.9,1508z"/>
			<linearGradient id="SVGID_9_" gradientUnits="userSpaceOnUse" x1="2120.917" y1="393.8847" x2="1910.8964" y2="846.9296">
				<stop  offset="0" style="stop-color:#09005D"/>
				<stop  offset="1" style="stop-color:#1A0F91"/>
			</linearGradient>
			<path class="st13" d="M1721,1508c2.3,0,4.1-1.9,4.1-4.1v-494.8c0-2.3-1.9-4.1-4.1-4.1c-2.3,0-4.1,1.9-4.1,4.1v494.8
				C1716.9,1506.2,1718.8,1508,1721,1508z"/>
			<linearGradient id="SVGID_10_" gradientUnits="userSpaceOnUse" x1="2261.2612" y1="458.9459" x2="2051.2402" y2="911.9915">
				<stop  offset="0" style="stop-color:#09005D"/>
				<stop  offset="1" style="stop-color:#1A0F91"/>
			</linearGradient>
			<path class="st14" d="M1996.7,1511.2c0.5,0,1.1-0.1,1.6-0.3c2.1-0.9,3.1-3.3,2.2-5.4l-211.7-498c-0.9-2.1-3.3-3.1-5.4-2.2
				c-2.1,0.9-3.1,3.3-2.2,5.4l211.7,498C1993.5,1510.2,1995.1,1511.2,1996.7,1511.2z"/>
			<linearGradient id="SVGID_11_" gradientUnits="userSpaceOnUse" x1="2153.6279" y1="409.0493" x2="1943.6068" y2="862.0948">
				<stop  offset="0" style="stop-color:#09005D"/>
				<stop  offset="1" style="stop-color:#1A0F91"/>
			</linearGradient>
			<path class="st15" d="M1865.9,1511.2c0.5,0,1.1-0.1,1.6-0.3c2.1-0.9,3.1-3.3,2.2-5.4l-211.7-498c-0.9-2.1-3.3-3.1-5.4-2.2
				c-2.1,0.9-3.1,3.3-2.2,5.4l211.7,498C1862.8,1510.2,1864.3,1511.2,1865.9,1511.2z"/>
			<linearGradient id="SVGID_12_" gradientUnits="userSpaceOnUse" x1="2008.1975" y1="341.6305" x2="1798.1766" y2="794.676">
				<stop  offset="0" style="stop-color:#09005D"/>
				<stop  offset="1" style="stop-color:#1A0F91"/>
			</linearGradient>
			<path class="st16" d="M1599.4,1013.6h200c1.6,0,2.8-1.3,2.8-2.8v-6c0-1.6-1.3-2.8-2.8-2.8h-200c-1.6,0-2.8,1.3-2.8,2.8v6
				C1596.6,1012.4,1597.8,1013.6,1599.4,1013.6z"/>
			<linearGradient id="SVGID_13_" gradientUnits="userSpaceOnUse" x1="2080.8508" y1="375.3127" x2="1870.8298" y2="828.3581">
				<stop  offset="0" style="stop-color:#09005D"/>
				<stop  offset="1" style="stop-color:#1A0F91"/>
			</linearGradient>
			<path class="st17" d="M1686.2,1089.3h131.2c2.3,0,4.1-1.9,4.1-4.1s-1.9-4.1-4.1-4.1h-131.2c-2.3,0-4.1,1.9-4.1,4.1
				S1683.9,1089.3,1686.2,1089.3z"/>
			<linearGradient id="SVGID_14_" gradientUnits="userSpaceOnUse" x1="2149.9116" y1="407.3248" x2="1939.8907" y2="860.3702">
				<stop  offset="0" style="stop-color:#09005D"/>
				<stop  offset="1" style="stop-color:#1A0F91"/>
			</linearGradient>
			<rect x="1726.4" y="1175.2" class="st18" width="131.2" height="8.3"/>
			<linearGradient id="SVGID_15_" gradientUnits="userSpaceOnUse" x1="2217.9136" y1="438.8511" x2="2007.8926" y2="891.8968">
				<stop  offset="0" style="stop-color:#09005D"/>
				<stop  offset="1" style="stop-color:#1A0F91"/>
			</linearGradient>
			<rect x="1765.4" y="1269.4" class="st19" width="131.2" height="8.3"/>
			<linearGradient id="SVGID_16_" gradientUnits="userSpaceOnUse" x1="2287.478" y1="471.0986" x2="2077.457" y2="924.1443">
				<stop  offset="0" style="stop-color:#09005D"/>
				<stop  offset="1" style="stop-color:#1A0F91"/>
			</linearGradient>
			<path class="st20" d="M1806.2,1371.9h131.2c2.3,0,4.1-1.9,4.1-4.1s-1.9-4.1-4.1-4.1h-131.2c-2.3,0-4.1,1.9-4.1,4.1
				S1804,1371.9,1806.2,1371.9z"/>
			<linearGradient id="SVGID_17_" gradientUnits="userSpaceOnUse" x1="2355.927" y1="502.8293" x2="2145.9062" y2="955.8742">
				<stop  offset="0" style="stop-color:#09005D"/>
				<stop  offset="1" style="stop-color:#1A0F91"/>
			</linearGradient>
			<path class="st21" d="M1845.7,1466.1h131.2c2.3,0,4.1-1.9,4.1-4.1c0-2.3-1.9-4.1-4.1-4.1h-131.2c-2.3,0-4.1,1.9-4.1,4.1
				C1841.6,1464.2,1843.5,1466.1,1845.7,1466.1z"/>
		</g>
		<g>
			<g class="st22">
				<linearGradient id="SVGID_18_" gradientUnits="userSpaceOnUse" x1="814.5738" y1="870.1807" x2="826.5782" y2="870.1807">
					<stop  offset="0" style="stop-color:#FE7062"/>
					<stop  offset="1" style="stop-color:#FF928E"/>
				</linearGradient>
				<path class="st23" d="M821.6,878.9c-2.1,0-4.1-1.4-4.7-3.6c-0.8-2.6-1.5-5.2-2.2-7.7c-0.7-2.6,0.9-5.3,3.5-6
					c2.6-0.7,5.3,0.9,6,3.5c0.7,2.5,1.4,5,2.1,7.5c0.8,2.6-0.7,5.4-3.4,6.1C822.6,878.9,822.1,878.9,821.6,878.9z"/>
				<linearGradient id="SVGID_19_" gradientUnits="userSpaceOnUse" x1="805.3062" y1="676.395" x2="1231.1356" y2="676.395">
					<stop  offset="0" style="stop-color:#FE7062"/>
					<stop  offset="1" style="stop-color:#FF928E"/>
				</linearGradient>
				<path class="st24" d="M814.2,846.5c-2.4,0-4.5-1.7-4.9-4.1c-0.9-5.2-1.6-10.5-2.2-15.7c-0.3-2.7,1.6-5.2,4.4-5.5
					c2.7-0.3,5.2,1.7,5.5,4.4c0.6,5.1,1.3,10.2,2.1,15.2c0.5,2.7-1.4,5.2-4.1,5.7C814.7,846.5,814.4,846.5,814.2,846.5z
					 M810.3,805.7c-2.7,0-4.9-2.1-4.9-4.8c0-2.1-0.1-4.2-0.1-6.3c0-3.2,0.1-6.4,0.2-9.5c0.1-2.7,2.4-4.9,5.1-4.8
					c2.7,0.1,4.9,2.4,4.8,5.1c-0.1,3.1-0.2,6.2-0.2,9.2c0,2,0,4.1,0.1,6.1c0.1,2.7-2.1,5-4.8,5C810.4,805.7,810.4,805.7,810.3,805.7
					z M812.4,764.8c-0.2,0-0.4,0-0.6,0c-2.7-0.3-4.6-2.8-4.3-5.5c0.6-5.2,1.4-10.5,2.3-15.7c0.5-2.7,3-4.5,5.7-4
					c2.7,0.5,4.5,3,4,5.7c-0.9,5-1.7,10.1-2.3,15.2C816.9,763,814.8,764.8,812.4,764.8z M820.2,724.6c-0.4,0-0.9-0.1-1.3-0.2
					c-2.6-0.7-4.2-3.4-3.5-6.1c1.4-5.1,2.9-10.2,4.6-15.2c0.9-2.6,3.7-4,6.2-3.1c2.6,0.9,4,3.7,3.1,6.2c-1.6,4.8-3.1,9.8-4.4,14.7
					C824.4,723.2,822.4,724.6,820.2,724.6z M833.8,686c-0.7,0-1.3-0.1-2-0.4c-2.5-1.1-3.6-4-2.6-6.5c2.1-4.8,4.4-9.7,6.8-14.4
					c1.2-2.4,4.2-3.4,6.6-2.2c2.4,1.2,3.4,4.2,2.2,6.6c-2.3,4.6-4.5,9.2-6.5,13.9C837.5,684.9,835.7,686,833.8,686z M852.9,649.7
					c-0.9,0-1.8-0.2-2.6-0.7c-2.3-1.4-3-4.5-1.6-6.8c2.8-4.5,5.7-8.9,8.8-13.3c1.6-2.2,4.7-2.8,6.9-1.2c2.2,1.6,2.8,4.7,1.2,6.9
					c-2.9,4.2-5.8,8.5-8.5,12.8C856.1,648.9,854.5,649.7,852.9,649.7z M877,616.6c-1.1,0-2.3-0.4-3.2-1.2c-2.1-1.8-2.3-4.9-0.6-7
					c3.4-4,7-8,10.6-11.8c1.9-2,5-2.1,7-0.2c2,1.9,2.1,5,0.2,7c-3.5,3.7-6.9,7.5-10.2,11.4C879.8,616,878.4,616.6,877,616.6z
					 M905.6,587.3c-1.4,0-2.7-0.6-3.7-1.7c-1.8-2-1.6-5.2,0.4-7c3.9-3.5,8-6.9,12.2-10.2c2.1-1.7,5.2-1.3,6.9,0.8
					c1.7,2.1,1.3,5.2-0.8,6.9c-4,3.2-8,6.5-11.8,9.9C908,586.9,906.8,587.3,905.6,587.3z M938.2,562.5c-1.6,0-3.2-0.8-4.1-2.2
					c-1.5-2.3-0.9-5.3,1.4-6.8c4.4-2.9,9-5.7,13.5-8.3c2.4-1.4,5.4-0.6,6.8,1.8c1.4,2.4,0.6,5.4-1.8,6.8c-4.4,2.5-8.8,5.3-13,8.1
					C940,562.2,939.1,562.5,938.2,562.5z M1226.2,549.2c-0.8,0-1.6-0.2-2.3-0.6c-4.5-2.4-9.1-4.7-13.7-6.8c-2.5-1.1-3.6-4.1-2.4-6.6
					c1.1-2.5,4.1-3.6,6.6-2.4c4.8,2.2,9.6,4.6,14.2,7.1c2.4,1.3,3.3,4.3,2,6.7C1229.7,548.3,1228,549.2,1226.2,549.2z M973.9,542.5
					c-1.9,0-3.6-1.1-4.5-2.9c-1.2-2.5-0.1-5.4,2.4-6.6c4.8-2.2,9.7-4.4,14.6-6.3c2.5-1,5.4,0.2,6.4,2.8c1,2.5-0.2,5.4-2.8,6.4
					c-4.7,1.9-9.4,3.9-14.1,6.1C975.3,542.4,974.6,542.5,973.9,542.5z M1188.7,532.7c-0.6,0-1.1-0.1-1.7-0.3
					c-4.8-1.7-9.7-3.3-14.6-4.8c-2.6-0.8-4.1-3.5-3.3-6.1c0.8-2.6,3.5-4.1,6.1-3.3c5.1,1.5,10.2,3.2,15.1,4.9c2.6,0.9,3.9,3.7,3,6.3
					C1192.7,531.4,1190.8,532.7,1188.7,532.7z M1012.2,528c-2.1,0-4.1-1.4-4.7-3.5c-0.8-2.6,0.7-5.4,3.3-6.2
					c5.1-1.5,10.2-2.9,15.3-4.1c2.7-0.6,5.3,1,6,3.7c0.6,2.7-1,5.3-3.7,6c-4.9,1.2-9.9,2.5-14.8,4
					C1013.1,527.9,1012.6,528,1012.2,528z M1149.3,521.7c-0.3,0-0.6,0-1-0.1c-5-1-10.1-1.9-15.1-2.6c-2.7-0.4-4.6-2.9-4.2-5.6
					c0.4-2.7,2.9-4.6,5.6-4.2c5.2,0.8,10.5,1.7,15.7,2.7c2.7,0.5,4.4,3.1,3.9,5.8C1153.6,520.1,1151.6,521.7,1149.3,521.7z
					 M1052.1,519.1c-2.4,0-4.5-1.8-4.9-4.2c-0.4-2.7,1.5-5.2,4.2-5.6c5.2-0.8,10.5-1.4,15.8-1.9c2.7-0.2,5.1,1.8,5.4,4.5
					c0.2,2.7-1.8,5.1-4.5,5.4c-5.1,0.5-10.2,1.1-15.2,1.8C1052.6,519.1,1052.4,519.1,1052.1,519.1z M1108.6,516.6
					c-0.1,0-0.2,0-0.3,0c-4.9-0.3-9.9-0.4-14.8-0.4l-0.5,0c-2.7,0-4.9-2.2-4.9-4.9c0-2.3,1.6-4.3,3.8-4.8l0.5-0.1h0.7
					c5.2,0,10.6,0.1,15.9,0.4c2.7,0.1,4.8,2.5,4.7,5.2C1113.4,514.5,1111.2,516.6,1108.6,516.6z"/>
				<linearGradient id="SVGID_20_" gradientUnits="userSpaceOnUse" x1="1243.2338" y1="559.5051" x2="1259.6678" y2="559.5051">
					<stop  offset="0" style="stop-color:#FE7062"/>
					<stop  offset="1" style="stop-color:#FF928E"/>
				</linearGradient>
				<path class="st25" d="M1254.7,566.7c-1,0-2-0.3-2.8-0.9c-2.1-1.5-4.3-2.9-6.4-4.3c-2.3-1.5-2.9-4.6-1.4-6.8
					c1.5-2.3,4.6-2.9,6.8-1.4c2.2,1.5,4.5,3,6.7,4.5c2.2,1.6,2.8,4.6,1.2,6.9C1257.8,565.9,1256.3,566.7,1254.7,566.7z"/>
			</g>
			<g class="st22">
				<linearGradient id="SVGID_21_" gradientUnits="userSpaceOnUse" x1="1365.7898" y1="741.6795" x2="1377.1383" y2="741.6795">
					<stop  offset="0" style="stop-color:#FE7062"/>
					<stop  offset="1" style="stop-color:#FF928E"/>
				</linearGradient>
				<path class="st26" d="M1372.2,750.5c-2.4,0-4.4-1.7-4.9-4.1c-0.4-2.6-0.9-5.1-1.4-7.6c-0.5-2.7,1.2-5.3,3.9-5.8
					c2.7-0.5,5.3,1.2,5.8,3.9c0.5,2.6,1,5.3,1.5,7.9c0.5,2.7-1.3,5.2-4,5.7C1372.8,750.5,1372.5,750.5,1372.2,750.5z"/>
				<linearGradient id="SVGID_22_" gradientUnits="userSpaceOnUse" x1="943.7113" y1="923.7512" x2="1381.182" y2="923.7512">
					<stop  offset="0" style="stop-color:#FE7062"/>
					<stop  offset="1" style="stop-color:#FF928E"/>
				</linearGradient>
				<path class="st27" d="M1102.9,1082.1c-2.7,0-4.8-2.1-4.9-4.8c-0.1-2.7,2.1-5,4.8-5.1c5-0.2,10.1-0.5,15.1-0.9
					c2.7-0.2,5.1,1.8,5.4,4.5c0.2,2.7-1.8,5.1-4.5,5.4c-5.2,0.4-10.4,0.8-15.6,0.9C1103,1082.1,1102.9,1082.1,1102.9,1082.1z
					 M1077.9,1081.8c-0.1,0-0.2,0-0.3,0c-1.4-0.1-2.8-0.2-4.2-0.3c-3.8-0.3-7.6-0.6-11.4-1c-2.7-0.3-4.7-2.7-4.4-5.4
					c0.3-2.7,2.7-4.7,5.4-4.4c3.6,0.4,7.3,0.7,11,1c1.4,0.1,2.7,0.2,4.1,0.3c2.7,0.1,4.8,2.5,4.7,5.2
					C1082.7,1079.8,1080.5,1081.8,1077.9,1081.8z M1143,1077.9c-2.4,0-4.4-1.7-4.9-4.1c-0.5-2.7,1.3-5.3,4-5.7
					c4.9-0.9,9.9-1.9,14.8-3c2.7-0.6,5.3,1,5.9,3.7c0.6,2.7-1,5.3-3.7,5.9c-5,1.2-10.2,2.2-15.3,3.2
					C1143.5,1077.9,1143.3,1077.9,1143,1077.9z M1037.9,1076.8c-0.3,0-0.6,0-1-0.1c-5.1-1-10.2-2.2-15.3-3.5c-2.6-0.7-4.2-3.4-3.6-6
					c0.7-2.6,3.4-4.2,6-3.6c4.8,1.2,9.8,2.4,14.7,3.3c2.7,0.5,4.4,3.1,3.9,5.8C1042.3,1075.2,1040.2,1076.8,1037.9,1076.8z
					 M1182,1068.1c-2.1,0-4-1.3-4.7-3.4c-0.9-2.6,0.5-5.4,3.1-6.2c4.7-1.6,9.5-3.3,14.2-5.1c2.5-1,5.4,0.3,6.4,2.8
					c1,2.5-0.3,5.4-2.8,6.4c-4.8,1.9-9.8,3.7-14.7,5.3C1183.1,1068,1182.6,1068.1,1182,1068.1z M999,1066.2c-0.5,0-1.1-0.1-1.6-0.3
					c-4.9-1.7-9.8-3.6-14.6-5.6c-2.5-1-3.7-3.9-2.7-6.5c1-2.5,3.9-3.7,6.5-2.7c4.6,1.9,9.4,3.7,14.1,5.4c2.6,0.9,3.9,3.7,3,6.3
					C1003,1064.9,1001.1,1066.2,999,1066.2z M1219.3,1052.7c-1.8,0-3.6-1-4.4-2.7c-1.2-2.4-0.2-5.4,2.2-6.6c4.5-2.2,9-4.6,13.3-7.1
					c2.4-1.3,5.4-0.5,6.7,1.9c1.3,2.4,0.5,5.4-1.9,6.7c-4.5,2.6-9.1,5-13.8,7.3C1220.8,1052.6,1220,1052.7,1219.3,1052.7z
					 M962.1,1050.1c-0.8,0-1.6-0.2-2.3-0.6c-4.6-2.4-9.2-5-13.6-7.6c-2.3-1.4-3.1-4.4-1.7-6.8c1.4-2.3,4.4-3.1,6.8-1.7
					c4.3,2.6,8.8,5,13.2,7.4c2.4,1.3,3.4,4.3,2.1,6.7C965.6,1049.1,963.8,1050.1,962.1,1050.1z M1254,1032.3c-1.6,0-3.1-0.7-4.1-2.1
					c-1.6-2.2-1-5.3,1.3-6.9c4.1-2.8,8.2-5.8,12.2-8.9c2.2-1.7,5.3-1.3,6.9,0.9c1.7,2.2,1.3,5.3-0.9,6.9c-4.1,3.2-8.3,6.3-12.6,9.2
					C1255.9,1032,1254.9,1032.3,1254,1032.3z M1285.4,1007.1c-1.3,0-2.7-0.5-3.6-1.6c-1.9-2-1.7-5.1,0.3-7
					c3.7-3.4,7.3-6.9,10.8-10.5c1.9-2,5-2,7-0.1c2,1.9,2,5,0.1,7c-3.6,3.7-7.4,7.4-11.2,10.9
					C1287.8,1006.6,1286.6,1007.1,1285.4,1007.1z M1313,977.7c-1.1,0-2.2-0.4-3.1-1.1c-2.1-1.7-2.4-4.8-0.7-7
					c3.2-3.9,6.3-7.9,9.2-12c1.6-2.2,4.7-2.7,6.9-1.1c2.2,1.6,2.7,4.7,1.1,6.9c-3.1,4.2-6.3,8.4-9.5,12.4
					C1315.9,977.1,1314.5,977.7,1313,977.7z M1336.2,944.7c-0.9,0-1.7-0.2-2.5-0.7c-2.3-1.4-3.1-4.4-1.7-6.8
					c2.6-4.3,5.1-8.7,7.4-13.2c1.3-2.4,4.3-3.3,6.7-2.1c2.4,1.3,3.3,4.3,2.1,6.7c-2.4,4.6-5,9.2-7.7,13.6
					C1339.5,943.8,1337.9,944.7,1336.2,944.7z M1354.4,908.7c-0.6,0-1.3-0.1-1.9-0.4c-2.5-1.1-3.7-4-2.6-6.5
					c1.9-4.6,3.8-9.4,5.5-14.1c0.9-2.6,3.7-3.9,6.3-3c2.6,0.9,3.9,3.7,3,6.3c-1.7,4.9-3.6,9.8-5.6,14.6
					C1358.2,907.6,1356.3,908.7,1354.4,908.7z M1367.3,870.5c-0.4,0-0.8-0.1-1.2-0.2c-2.6-0.7-4.2-3.4-3.5-6
					c1.3-4.8,2.4-9.8,3.4-14.7c0.5-2.7,3.1-4.4,5.8-3.9c2.7,0.5,4.4,3.1,3.9,5.8c-1,5.1-2.2,10.2-3.5,15.2
					C1371.5,869,1369.5,870.5,1367.3,870.5z M1374.6,830.9c-0.2,0-0.4,0-0.6,0c-2.7-0.3-4.7-2.7-4.4-5.5c0.4-3.9,0.8-8,1.1-11.9
					c0.1-1,0.1-2.1,0.2-3.1c0.2-2.7,2.5-4.8,5.2-4.6c2.7,0.2,4.8,2.5,4.6,5.2c-0.1,1.1-0.1,2.1-0.2,3.2c-0.3,4.1-0.7,8.3-1.1,12.4
					C1379.2,829,1377.1,830.9,1374.6,830.9z M1376.2,790.6c-2.7,0-4.9-2.1-4.9-4.8c-0.1-5-0.4-10.1-0.8-15.1
					c-0.2-2.7,1.8-5.1,4.5-5.3c2.7-0.2,5.1,1.8,5.3,4.5c0.4,5.2,0.7,10.4,0.9,15.6c0.1,2.7-2.1,5-4.8,5.1
					C1376.3,790.6,1376.3,790.6,1376.2,790.6z"/>
				<linearGradient id="SVGID_23_" gradientUnits="userSpaceOnUse" x1="916.3482" y1="1021.4503" x2="932.5697" y2="1021.4503">
					<stop  offset="0" style="stop-color:#FE7062"/>
					<stop  offset="1" style="stop-color:#FF928E"/>
				</linearGradient>
				<path class="st28" d="M927.6,1028.8c-1,0-2-0.3-2.9-0.9c-2.2-1.6-4.3-3.2-6.4-4.8c-2.2-1.7-2.6-4.8-0.9-6.9
					c1.7-2.2,4.8-2.6,6.9-0.9c2.1,1.6,4.1,3.1,6.2,4.6c2.2,1.6,2.7,4.7,1.1,6.9C930.7,1028,929.2,1028.8,927.6,1028.8z"/>
			</g>
			<g>
				
					<linearGradient id="SVGID_24_" gradientUnits="userSpaceOnUse" x1="4895.6118" y1="1203.1829" x2="5563.4053" y2="2381.325" gradientTransform="matrix(-0.4937 0.8696 -0.8696 -0.4937 4804.1362 -2871.0022)">
					<stop  offset="0" style="stop-color:#FE7062"/>
					<stop  offset="1" style="stop-color:#FF928E"/>
				</linearGradient>
				<path class="st29" d="M940.5,948.9c0.9,1.1,2.4,1.5,3.8,1l38.8-14.3c15.3,11.8,32.6,21.2,51.4,27.7l9.5,40.2
					c0.3,1.4,1.5,2.5,3,2.6l49.3,5c1.4,0.1,2.8-0.6,3.4-2l17.3-37.5c19.7-2.6,38.5-8.3,55.9-16.8l35.2,21.8c1.2,0.8,2.8,0.7,3.9-0.3
					l38.4-31.4c1.1-0.9,1.5-2.4,1-3.8l-14.3-38.8c11.8-15.3,21.2-32.6,27.7-51.4l40.2-9.5c1.4-0.3,2.5-1.5,2.6-3l5-49.3
					c0.1-1.4-0.6-2.8-2-3.4l-37.5-17.3c-2.6-19.7-8.3-38.5-16.8-55.9l21.8-35.2c0.8-1.2,0.7-2.8-0.3-3.9l-31.4-38.4
					c-0.9-1.1-2.4-1.5-3.8-1l-38.8,14.3c-15.3-11.8-32.6-21.2-51.4-27.7l-9.5-40.2c-0.3-1.4-1.5-2.5-3-2.6l-49.3-5
					c-1.4-0.1-2.8,0.6-3.4,2l-17.3,37.5c-19.7,2.6-38.5,8.3-55.9,16.8L979,607.4c-1.2-0.8-2.8-0.7-3.9,0.3L936.6,639
					c-1.1,0.9-1.5,2.4-1,3.8l14.3,38.8c-11.8,15.3-21.2,32.6-27.7,51.4l-40.2,9.5c-1.4,0.3-2.5,1.5-2.6,3l-5,49.3
					c-0.1,1.4,0.6,2.8,2,3.4l37.5,17.3c2.6,19.7,8.3,38.5,16.8,55.9l-21.8,35.2c-0.8,1.2-0.7,2.8,0.3,3.9L940.5,948.9z"/>
				<linearGradient id="SVGID_25_" gradientUnits="userSpaceOnUse" x1="1230.1035" y1="-9.7941" x2="1161.0964" y2="395.246">
					<stop  offset="0" style="stop-color:#FF928E"/>
					<stop  offset="1" style="stop-color:#FEB3B1"/>
				</linearGradient>
				<path class="st30" d="M1093.5,840c-23.4,0-43.9-17.2-47.4-41c-3.9-26.2,14.3-50.6,40.5-54.5c26.2-3.8,50.6,14.3,54.5,40.5
					c3.9,26.2-14.3,50.6-40.5,54.5C1098.1,839.9,1095.8,840,1093.5,840z M1093.5,752c-1.9,0-3.9,0.1-5.9,0.4
					c-21.9,3.2-37,23.6-33.8,45.5c3.2,21.9,23.6,37,45.5,33.8c10.6-1.6,19.9-7.2,26.3-15.7c6.4-8.6,9-19.2,7.5-29.8
					C1130.2,766.3,1113.1,752,1093.5,752z"/>
				<linearGradient id="SVGID_26_" gradientUnits="userSpaceOnUse" x1="1230.7197" y1="-9.69" x2="1161.7125" y2="395.3507">
					<stop  offset="0" style="stop-color:#FF928E"/>
					<stop  offset="1" style="stop-color:#FEB3B1"/>
				</linearGradient>
				<path class="st31" d="M1094.3,913c-4.1,0-8.2-0.2-12.3-0.6l0,0c-8.6-0.9-17.2-2.7-25.3-5.3c-0.8-0.3-1.4-1-1.4-1.9
					c0-0.2,0-0.4,0.1-0.6c0.3-1,1.5-1.6,2.5-1.3c7.9,2.6,16.2,4.3,24.5,5.1c64.6,6.6,122.4-40.7,129-105.2c0.4-4,0.6-8.1,0.6-12.1
					c0-27-9.2-53-26.5-74.2c-19.9-24.4-48-39.5-79.3-42.7c-64.6-6.6-122.4,40.7-129,105.2c-0.4,4-0.6,8-0.6,11.9
					c0,17.2,3.8,34.3,11.1,49.9c0.1,0.3,0.2,0.6,0.2,0.8c0,0.7-0.4,1.5-1.1,1.8c-1,0.5-2.2,0-2.6-0.9c-7.6-16.1-11.5-33.7-11.5-51.5
					c0-4.1,0.2-8.2,0.6-12.3c6.8-66.7,66.6-115.5,133.3-108.8c32.3,3.3,61.4,18.9,82,44.1c17.9,21.9,27.4,48.8,27.4,76.7
					c0,4.1-0.2,8.3-0.6,12.5C1208.9,866.2,1156,913,1094.3,913z"/>
			</g>
		</g>
		<g>
			<linearGradient id="SVGID_27_" gradientUnits="userSpaceOnUse" x1="1460.0393" y1="358.2993" x2="1472.2406" y2="795.5225">
				<stop  offset="0" style="stop-color:#FE7062"/>
				<stop  offset="1" style="stop-color:#FF928E"/>
			</linearGradient>
			<path class="st32" d="M1386.3,546.3l21-9.7c9.1,5.9,19.1,10.4,29.9,13.2l7.1,22c0.2,0.8,1,1.3,1.8,1.3l27.8,0.6
				c0.8,0,1.5-0.5,1.8-1.2l8-21.7c10.9-2.3,21.2-6.4,30.5-11.9l20.6,10.6c0.7,0.4,1.6,0.2,2.2-0.3l20.1-19.2
				c0.6-0.6,0.8-1.4,0.4-2.2l-9.7-21c5.9-9.1,10.4-19.1,13.2-29.9l22-7.1c0.8-0.2,1.3-1,1.3-1.8l0.6-27.8c0-0.8-0.5-1.5-1.2-1.8
				l-21.7-8c-2.3-10.9-6.4-21.2-11.9-30.5l10.6-20.6c0.4-0.7,0.2-1.6-0.3-2.2l-19.2-20.1c-0.6-0.6-1.4-0.8-2.2-0.4l-21,9.7
				c-9.1-5.9-19.1-10.4-29.9-13.2l-7.1-22c-0.2-0.8-1-1.3-1.8-1.3l-27.8-0.6c-0.8,0-1.5,0.5-1.8,1.2l-8,21.7
				c-10.9,2.3-21.2,6.4-30.5,11.9l-20.6-10.6c-0.7-0.4-1.6-0.2-2.2,0.3l-20.1,19.2c-0.6,0.6-0.8,1.4-0.4,2.2l9.7,21
				c-5.9,9.1-10.4,19.1-13.2,29.9l-22,7.1c-0.8,0.2-1.3,1-1.3,1.8l-0.6,27.8c0,0.8,0.5,1.5,1.2,1.8l21.7,8
				c2.3,10.9,6.4,21.2,11.9,30.5l-10.6,20.6c-0.4,0.7-0.2,1.6,0.3,2.2l19.2,20.1C1384.7,546.5,1385.6,546.6,1386.3,546.3z"/>
			<linearGradient id="SVGID_28_" gradientUnits="userSpaceOnUse" x1="1587.5811" y1="-225.3255" x2="1515.574" y2="164.7133">
				<stop  offset="0" style="stop-color:#FF928E"/>
				<stop  offset="1" style="stop-color:#FEB3B1"/>
			</linearGradient>
			<path class="st33" d="M1462.6,478.1c-4.9,0-9.8-1.4-14.1-4.1c-6-3.8-10.2-9.7-11.8-16.6c-3.3-14.3,5.7-28.6,20-31.9
				c14.3-3.3,28.7,5.7,31.9,20c3.3,14.3-5.7,28.6-20,31.9l0,0C1466.6,477.9,1464.6,478.1,1462.6,478.1z M1468.2,475.5L1468.2,475.5
				L1468.2,475.5z M1462.6,428.7c-1.7,0-3.4,0.2-5.1,0.6c-12.2,2.8-19.8,15-17,27.2c1.4,5.9,4.9,10.9,10.1,14.2s11.2,4.2,17.1,2.9
				l0,0c12.2-2.8,19.8-15,17-27.2C1482.4,435.9,1473,428.7,1462.6,428.7z"/>
			<g>
				<g class="st22">
					<linearGradient id="SVGID_29_" gradientUnits="userSpaceOnUse" x1="1328.9158" y1="529.7607" x2="1342.9543" y2="529.7607">
						<stop  offset="0" style="stop-color:#FE7062"/>
						<stop  offset="1" style="stop-color:#FF928E"/>
					</linearGradient>
					<path class="st34" d="M1338,538.1c-1.6,0-3.2-0.8-4.1-2.2c-1.5-2.3-2.9-4.6-4.3-6.9c-1.4-2.4-0.6-5.4,1.8-6.8
						c2.4-1.4,5.4-0.6,6.8,1.8c1.3,2.2,2.6,4.4,4,6.5c1.5,2.3,0.9,5.3-1.4,6.8C1339.9,537.8,1338.9,538.1,1338,538.1z"/>
					<linearGradient id="SVGID_30_" gradientUnits="userSpaceOnUse" x1="1308.6986" y1="403.0396" x2="1480.843" y2="403.0396">
						<stop  offset="0" style="stop-color:#FE7062"/>
						<stop  offset="1" style="stop-color:#FF928E"/>
					</linearGradient>
					<path class="st35" d="M1323.1,508.6c-2,0-3.9-1.2-4.6-3.2c-1.9-5-3.5-10.1-4.8-15.3c-0.7-2.6,0.9-5.3,3.5-6
						c2.6-0.7,5.3,0.9,6,3.5c1.2,4.8,2.8,9.6,4.5,14.3c1,2.6-0.3,5.4-2.9,6.4C1324.2,508.5,1323.7,508.6,1323.1,508.6z
						 M1314.2,468.9c-2.5,0-4.7-1.9-4.9-4.5c-0.4-4.3-0.6-8.8-0.6-13.1c0-1,0-1.9,0-2.9c0.1-2.7,2.3-4.9,5-4.8
						c2.7,0.1,4.9,2.3,4.8,5c0,0.9,0,1.8,0,2.7c0,4.1,0.2,8.2,0.5,12.3c0.2,2.7-1.8,5.1-4.5,5.3
						C1314.5,468.9,1314.3,468.9,1314.2,468.9z M1316.3,428.4c-0.3,0-0.6,0-0.9-0.1c-2.7-0.5-4.4-3.1-3.9-5.8
						c1-5.2,2.3-10.5,3.8-15.6c0.8-2.6,3.6-4.1,6.2-3.3c2.6,0.8,4.1,3.6,3.3,6.2c-1.4,4.8-2.7,9.7-3.6,14.6
						C1320.7,426.8,1318.6,428.4,1316.3,428.4z M1329.3,389.9c-0.7,0-1.5-0.2-2.2-0.5c-2.4-1.2-3.4-4.2-2.2-6.6
						c2.4-4.8,5-9.4,7.9-13.9c1.5-2.3,4.5-3,6.8-1.5c2.3,1.5,3,4.5,1.5,6.8c-2.7,4.2-5.2,8.6-7.4,13.1
						C1332.9,388.9,1331.1,389.9,1329.3,389.9z M1352.2,356.4c-1.2,0-2.4-0.4-3.3-1.3c-2-1.8-2.2-5-0.4-7c3.6-4,7.4-7.8,11.3-11.3
						c2-1.8,5.2-1.7,7,0.4c1.8,2,1.7,5.2-0.4,7c-3.7,3.3-7.3,6.9-10.6,10.6C1354.9,355.9,1353.5,356.4,1352.2,356.4z M1383.3,330.3
						c-1.6,0-3.2-0.8-4.2-2.3c-1.5-2.3-0.8-5.4,1.6-6.8c4.5-2.8,9.2-5.5,14-7.8c2.4-1.2,5.4-0.2,6.6,2.3c1.2,2.4,0.2,5.4-2.3,6.6
						c-4.5,2.2-8.9,4.6-13.1,7.3C1385.1,330,1384.2,330.3,1383.3,330.3z M1420.3,313.6c-2.1,0-4.1-1.4-4.7-3.5
						c-0.8-2.6,0.7-5.4,3.3-6.1c3.1-0.9,6.2-1.7,9.3-2.4c2.1-0.5,4.2-0.9,6.2-1.3c2.7-0.5,5.3,1.3,5.8,3.9c0.5,2.7-1.3,5.3-3.9,5.8
						c-1.9,0.4-3.9,0.8-5.8,1.2c-2.9,0.7-5.9,1.4-8.7,2.3C1421.2,313.5,1420.7,313.6,1420.3,313.6z M1475.9,308c-0.1,0-0.3,0-0.4,0
						c-5-0.4-10-0.6-15-0.5c-2.8,0-5-2.1-5-4.9c0-2.7,2.1-5,4.9-5c5.3-0.1,10.7,0.1,16,0.6c2.7,0.2,4.7,2.6,4.5,5.4
						C1480.6,306,1478.4,308,1475.9,308z"/>
					<linearGradient id="SVGID_31_" gradientUnits="userSpaceOnUse" x1="1495.8547" y1="308.5374" x2="1513.3202" y2="308.5374">
						<stop  offset="0" style="stop-color:#FE7062"/>
						<stop  offset="1" style="stop-color:#FF928E"/>
					</linearGradient>
					<path class="st36" d="M1508.4,314.6c-0.5,0-1-0.1-1.5-0.2c-2.4-0.8-4.9-1.5-7.3-2.2c-2.6-0.7-4.2-3.4-3.5-6
						c0.7-2.6,3.4-4.2,6-3.5c2.6,0.7,5.2,1.5,7.8,2.3c2.6,0.8,4,3.6,3.2,6.2C1512.4,313.3,1510.5,314.6,1508.4,314.6z"/>
				</g>
				<g class="st22">
					<linearGradient id="SVGID_32_" gradientUnits="userSpaceOnUse" x1="1588.7748" y1="384.1225" x2="1602.2277" y2="384.1225">
						<stop  offset="0" style="stop-color:#FE7062"/>
						<stop  offset="1" style="stop-color:#FF928E"/>
					</linearGradient>
					<path class="st37" d="M1597.3,392.6c-1.9,0-3.6-1-4.5-2.8c-1.1-2.3-2.2-4.6-3.4-6.8c-1.3-2.4-0.4-5.4,2-6.7
						c2.4-1.3,5.4-0.4,6.7,2c1.3,2.4,2.5,4.8,3.7,7.3c1.2,2.5,0.1,5.4-2.4,6.6C1598.7,392.4,1598,392.6,1597.3,392.6z"/>
					<linearGradient id="SVGID_33_" gradientUnits="userSpaceOnUse" x1="1437.1605" y1="505.6057" x2="1616.5789" y2="505.6057">
						<stop  offset="0" style="stop-color:#FE7062"/>
						<stop  offset="1" style="stop-color:#FF928E"/>
					</linearGradient>
					<path class="st38" d="M1457.3,605.3c-0.1,0-0.1,0-0.2,0c-5.2-0.2-10.5-0.6-15.7-1.4c-2.7-0.4-4.6-2.9-4.2-5.6
						c0.4-2.7,2.9-4.6,5.6-4.2c4.8,0.7,9.8,1.1,14.7,1.3c2.7,0.1,4.9,2.4,4.8,5.1C1462.1,603.2,1460,605.3,1457.3,605.3z
						 M1482,604.1c-2.4,0-4.6-1.8-4.9-4.3c-0.4-2.7,1.5-5.2,4.2-5.6c4.5-0.6,9-1.4,13.5-2.4l1-0.2c2.7-0.6,5.3,1,6,3.7
						c0.6,2.7-1,5.3-3.7,6l-1.1,0.3c-4.7,1.1-9.6,2-14.4,2.6C1482.5,604.1,1482.3,604.1,1482,604.1z M1520.6,593.6
						c-1.9,0-3.8-1.1-4.6-3c-1.1-2.5,0.1-5.4,2.6-6.5c4.5-1.9,9-4.1,13.3-6.4c2.4-1.3,5.4-0.4,6.7,2c1.3,2.4,0.4,5.4-2,6.7
						c-4.6,2.5-9.4,4.8-14.2,6.9C1521.9,593.5,1521.3,593.6,1520.6,593.6z M1555,573.3c-1.5,0-2.9-0.6-3.9-1.9
						c-1.7-2.1-1.3-5.2,0.8-6.9c3.8-3,7.6-6.3,11.1-9.7c2-1.9,5.1-1.9,7,0.1c1.9,2,1.9,5.1-0.1,7c-3.8,3.7-7.7,7.2-11.8,10.4
						C1557.2,573,1556.1,573.3,1555,573.3z M1582.7,544.6c-1,0-2-0.3-2.9-1c-2.2-1.6-2.7-4.7-1.1-6.9c2.9-3.9,5.6-8.1,8.1-12.3
						c1.4-2.4,4.4-3.1,6.8-1.8c2.4,1.4,3.1,4.4,1.8,6.8c-2.7,4.5-5.6,8.9-8.7,13.2C1585.7,543.9,1584.2,544.6,1582.7,544.6z
						 M1601.8,509.5c-0.6,0-1.2-0.1-1.8-0.3c-2.5-1-3.8-3.8-2.9-6.4c1.8-4.6,3.3-9.3,4.6-14c0.7-2.6,3.4-4.2,6.1-3.5
						c2.6,0.7,4.2,3.4,3.5,6.1c-1.4,5.1-3,10.1-4.9,15C1605.7,508.3,1603.8,509.5,1601.8,509.5z M1611,470.6c-0.2,0-0.3,0-0.5,0
						c-2.7-0.3-4.7-2.7-4.4-5.4c0.4-4.5,0.6-9.1,0.6-13.6l0-1.1c0-2.7,2.2-5,4.9-5c0,0,0,0,0,0c2.7,0,4.9,2.2,4.9,4.9l0,1.2
						c0,4.8-0.2,9.7-0.7,14.5C1615.6,468.7,1613.5,470.6,1611,470.6z M1609.4,430.7c-2.4,0-4.4-1.7-4.9-4.1
						c-0.4-2.5-0.9-4.9-1.5-7.4c-0.5-2.3-1.1-4.7-1.8-7c-0.7-2.6,0.8-5.4,3.4-6.1c2.6-0.7,5.4,0.8,6.1,3.4c0.7,2.5,1.3,5,1.9,7.5
						c0.6,2.6,1.1,5.3,1.6,7.9c0.5,2.7-1.3,5.3-4,5.7C1609.9,430.7,1609.6,430.7,1609.4,430.7z"/>
					<linearGradient id="SVGID_34_" gradientUnits="userSpaceOnUse" x1="1405.438" y1="592.254" x2="1422.7931" y2="592.254">
						<stop  offset="0" style="stop-color:#FE7062"/>
						<stop  offset="1" style="stop-color:#FF928E"/>
					</linearGradient>
					<path class="st39" d="M1417.9,598.5c-0.5,0-1-0.1-1.5-0.2c-2.6-0.8-5.2-1.7-7.7-2.7c-2.6-1-3.9-3.8-2.9-6.4
						c1-2.6,3.8-3.9,6.4-2.9c2.4,0.9,4.8,1.7,7.2,2.5c2.6,0.8,4,3.6,3.2,6.2C1421.9,597.1,1419.9,598.5,1417.9,598.5z"/>
				</g>
			</g>
			<linearGradient id="SVGID_35_" gradientUnits="userSpaceOnUse" x1="1587.5853" y1="-225.3229" x2="1515.5781" y2="164.7164">
				<stop  offset="0" style="stop-color:#FF928E"/>
				<stop  offset="1" style="stop-color:#FEB3B1"/>
			</linearGradient>
			<path class="st40" d="M1462.7,520.5c-0.5,0-1,0-1.5,0l0,0c-1.2,0-2.3-0.1-3.5-0.2c-3.2-0.2-6.4-0.7-9.6-1.4c0,0-0.1,0-0.1,0
				c-0.5-0.1-0.9-0.2-1.4-0.3c-0.9-0.2-1.5-1-1.5-1.9c0-0.2,0-0.3,0.1-0.5c0.3-1.1,1.3-1.7,2.4-1.5c4.5,1.1,9.1,1.7,13.7,1.8
				c17.4,0.4,33.9-6,46.4-18.1s19.7-28.2,20-45.6c0-0.5,0-0.9,0-1.4c0-35.2-28.3-64.3-63.7-65.1c-35.9-0.8-65.7,27.8-66.5,63.7
				c0,0.5,0,0.9,0,1.4c0,11.3,2.9,22.4,8.5,32.2c0.2,0.3,0.3,0.6,0.3,1c0,0.7-0.4,1.4-1,1.7c-0.9,0.5-2.2,0.2-2.7-0.7
				c-5.9-10.4-9-22.2-9-34.1c0-0.5,0-1,0-1.5c0.8-37.5,31.6-67.5,69-67.5c0.5,0,1,0,1.5,0c37.6,0.8,67.5,31.6,67.5,69
				c0,0.5,0,1,0,1.5c-0.4,18.4-8,35.6-21.3,48.4C1497.4,513.7,1480.5,520.5,1462.7,520.5z"/>
		</g>
		<g>
			<g class="st22">
				<linearGradient id="SVGID_36_" gradientUnits="userSpaceOnUse" x1="624.5239" y1="997.2985" x2="629.7742" y2="997.2985">
					<stop  offset="0" style="stop-color:#FE7062"/>
					<stop  offset="1" style="stop-color:#FF928E"/>
				</linearGradient>
				<path class="st41" d="M627.8,1001.7c-0.9,0-1.6-0.6-1.9-1.4c-0.5-1.6-0.9-3.2-1.3-4.8c-0.3-1.1,0.4-2.1,1.4-2.4
					c1.1-0.3,2.1,0.4,2.4,1.4c0.4,1.6,0.8,3.1,1.3,4.7c0.3,1-0.3,2.1-1.3,2.5C628.2,1001.6,628,1001.7,627.8,1001.7z"/>
				<linearGradient id="SVGID_37_" gradientUnits="userSpaceOnUse" x1="620.8842" y1="913.7631" x2="804.52" y2="913.7631">
					<stop  offset="0" style="stop-color:#FE7062"/>
					<stop  offset="1" style="stop-color:#FF928E"/>
				</linearGradient>
				<path class="st42" d="M624.5,987c-1,0-1.8-0.7-1.9-1.7c-0.5-3.4-1-6.8-1.2-10.2c-0.1-1.1,0.7-2,1.8-2.1c1.1-0.1,2,0.7,2.1,1.8
					c0.3,3.3,0.7,6.6,1.2,9.8c0.2,1.1-0.6,2.1-1.6,2.3C624.7,987,624.6,987,624.5,987z M622.9,967C622.9,967,622.9,967,622.9,967
					c-1.1,0-2-0.9-2-2c0-2.8,0.1-5.6,0.3-8.4c0-0.6,0.1-1.2,0.1-1.8c0.1-1.1,1-1.9,2.1-1.8c1.1,0.1,1.9,1,1.8,2.1
					c0,0.6-0.1,1.1-0.1,1.7c-0.2,2.7-0.3,5.5-0.3,8.2C624.8,966.1,624,967,622.9,967z M624.5,946.9c-0.1,0-0.2,0-0.3,0
					c-1.1-0.2-1.8-1.2-1.6-2.3c0.6-3.4,1.3-6.7,2.1-10c0.3-1.1,1.3-1.7,2.4-1.4c1.1,0.3,1.7,1.3,1.4,2.4c-0.8,3.2-1.5,6.5-2,9.7
					C626.3,946.2,625.5,946.9,624.5,946.9z M629.4,927.4c-0.2,0-0.4,0-0.6-0.1c-1-0.4-1.6-1.5-1.2-2.5c1.1-3.2,2.3-6.4,3.7-9.5
					c0.4-1,1.6-1.5,2.6-1c1,0.4,1.5,1.6,1,2.6c-1.3,3-2.5,6.1-3.6,9.2C631,926.9,630.3,927.4,629.4,927.4z M637.5,909
					c-0.3,0-0.6-0.1-0.9-0.2c-1-0.5-1.3-1.7-0.8-2.7c1.6-3,3.4-6,5.2-8.8c0.6-0.9,1.8-1.2,2.7-0.6c0.9,0.6,1.2,1.8,0.6,2.7
					c-1.8,2.8-3.5,5.6-5.1,8.5C638.9,908.6,638.2,909,637.5,909z M648.5,892.1c-0.4,0-0.8-0.1-1.2-0.4c-0.9-0.7-1-1.9-0.4-2.8
					c2.1-2.7,4.3-5.3,6.6-7.8c0.7-0.8,2-0.9,2.8-0.1c0.8,0.7,0.9,2,0.1,2.8c-2.2,2.4-4.4,5-6.4,7.6
					C649.7,891.8,649.1,892.1,648.5,892.1z M662.1,877.2c-0.5,0-1.1-0.2-1.4-0.6c-0.7-0.8-0.7-2.1,0.1-2.8c2.5-2.3,5.1-4.5,7.8-6.6
					c0.9-0.7,2.1-0.5,2.8,0.3c0.7,0.9,0.5,2.1-0.3,2.8c-2.6,2-5.1,4.2-7.5,6.4C663,877.1,662.5,877.2,662.1,877.2z M677.9,864.8
					c-0.6,0-1.3-0.3-1.7-0.9c-0.6-0.9-0.4-2.1,0.6-2.7c2.8-1.9,5.8-3.7,8.8-5.3c1-0.5,2.2-0.2,2.7,0.8c0.5,1,0.2,2.2-0.8,2.7
					c-2.9,1.6-5.7,3.3-8.5,5.1C678.6,864.7,678.3,864.8,677.9,864.8z M802.5,858.5c-0.3,0-0.6-0.1-0.9-0.2c-2.9-1.5-5.9-3-9-4.2
					c-1-0.4-1.5-1.6-1-2.6c0.4-1,1.6-1.5,2.6-1c3.1,1.3,6.2,2.8,9.3,4.4c1,0.5,1.3,1.7,0.8,2.7C803.9,858.1,803.3,858.5,802.5,858.5
					z M695.5,855.1c-0.8,0-1.5-0.4-1.8-1.2c-0.4-1,0-2.2,1-2.6c3.1-1.4,6.3-2.7,9.5-3.8c1-0.4,2.2,0.2,2.5,1.2
					c0.4,1-0.2,2.2-1.2,2.5c-3.1,1.1-6.2,2.3-9.2,3.7C696.1,855,695.8,855.1,695.5,855.1z M784,850.6c-0.2,0-0.4,0-0.6-0.1
					c-3.1-1-6.3-1.9-9.5-2.7c-1.1-0.3-1.7-1.3-1.5-2.4s1.3-1.7,2.4-1.5c3.3,0.8,6.6,1.7,9.8,2.8c1,0.3,1.6,1.5,1.3,2.5
					C785.6,850.1,784.8,850.6,784,850.6z M714.5,848.4c-0.9,0-1.7-0.6-1.9-1.5c-0.3-1.1,0.4-2.1,1.4-2.4c3.3-0.9,6.7-1.6,10-2.2
					c1.1-0.2,2.1,0.5,2.3,1.6c0.2,1.1-0.5,2.1-1.6,2.3c-3.2,0.6-6.5,1.3-9.7,2.1C714.8,848.4,714.6,848.4,714.5,848.4z M764.4,845.9
					c-0.1,0-0.2,0-0.3,0c-3.2-0.5-6.5-0.9-9.8-1.1c-1.1-0.1-1.9-1-1.8-2.1c0.1-1.1,1-1.9,2.1-1.8c3.4,0.2,6.8,0.6,10.2,1.2
					c1.1,0.2,1.8,1.2,1.6,2.3C766.2,845.2,765.4,845.9,764.4,845.9z M734.3,844.9c-1,0-1.9-0.8-2-1.8c-0.1-1.1,0.7-2.1,1.8-2.1
					c3.4-0.3,6.8-0.5,10.2-0.5c0,0,0,0,0,0c1.1,0,2,0.9,2,2c0,1.1-0.9,2-2,2c-3.3,0-6.6,0.2-9.9,0.5
					C734.4,844.9,734.4,844.9,734.3,844.9z"/>
				<linearGradient id="SVGID_38_" gradientUnits="userSpaceOnUse" x1="809.3934" y1="862.9852" x2="817.4578" y2="862.9852">
					<stop  offset="0" style="stop-color:#FE7062"/>
					<stop  offset="1" style="stop-color:#FF928E"/>
				</linearGradient>
				<path class="st43" d="M815.5,866.3c-0.4,0-0.8-0.1-1.1-0.4c-1.3-0.9-2.7-1.8-4-2.7c-0.9-0.6-1.2-1.8-0.6-2.7
					c0.6-0.9,1.8-1.2,2.7-0.6c1.4,0.9,2.8,1.8,4.2,2.8c0.9,0.6,1.1,1.9,0.5,2.8C816.7,866,816.1,866.3,815.5,866.3z"/>
			</g>
			<g class="st22">
				<linearGradient id="SVGID_39_" gradientUnits="userSpaceOnUse" x1="863.7776" y1="943.0923" x2="868.6158" y2="943.0923">
					<stop  offset="0" style="stop-color:#FE7062"/>
					<stop  offset="1" style="stop-color:#FF928E"/>
				</linearGradient>
				<path class="st44" d="M866.6,947.5c-1,0-1.8-0.7-1.9-1.7c-0.3-1.6-0.5-3.2-0.9-4.8c-0.2-1.1,0.5-2.1,1.5-2.3
					c1.1-0.2,2.1,0.5,2.3,1.5c0.3,1.6,0.6,3.3,0.9,4.9c0.2,1.1-0.6,2.1-1.6,2.3C866.8,947.5,866.7,947.5,866.6,947.5z"/>
				<linearGradient id="SVGID_40_" gradientUnits="userSpaceOnUse" x1="681.4114" y1="1021.5835" x2="870.1703" y2="1021.5835">
					<stop  offset="0" style="stop-color:#FE7062"/>
					<stop  offset="1" style="stop-color:#FF928E"/>
				</linearGradient>
				<path class="st45" d="M745.7,1089.8c-2,0-3.9,0-5.9-0.1c-1.1-0.1-1.9-1-1.9-2.1c0.1-1.1,1-1.9,2.1-1.9c3.2,0.2,6.5,0.2,9.8,0.1
					c1.1-0.1,2,0.8,2,1.9c0,1.1-0.8,2-1.9,2C748.5,1089.8,747.1,1089.8,745.7,1089.8z M759.7,1089c-1,0-1.8-0.7-2-1.8
					c-0.1-1.1,0.7-2.1,1.7-2.2c3.2-0.4,6.4-0.9,9.6-1.5c1.1-0.2,2.1,0.5,2.3,1.6c0.2,1.1-0.5,2.1-1.6,2.3c-3.3,0.7-6.6,1.2-10,1.6
					C759.8,1089,759.7,1089,759.7,1089z M730,1088.8c-0.1,0-0.2,0-0.3,0c-3.3-0.4-6.7-1-9.9-1.7c-1.1-0.2-1.8-1.3-1.5-2.3
					c0.2-1.1,1.3-1.8,2.3-1.5c3.2,0.7,6.4,1.2,9.6,1.6c1.1,0.1,1.8,1.1,1.7,2.2C731.8,1088.1,731,1088.8,730,1088.8z M779.1,1085.1
					c-0.9,0-1.7-0.6-1.9-1.4c-0.3-1.1,0.3-2.1,1.4-2.4c3.1-0.9,6.2-1.9,9.3-3c1-0.4,2.2,0.1,2.5,1.2c0.4,1-0.1,2.2-1.2,2.5
					c-3.1,1.2-6.3,2.2-9.6,3.1C779.4,1085.1,779.3,1085.1,779.1,1085.1z M710.6,1084.7c-0.2,0-0.4,0-0.6-0.1c-3.2-1-6.4-2-9.5-3.3
					c-1-0.4-1.5-1.5-1.1-2.6c0.4-1,1.5-1.5,2.6-1.1c3,1.2,6.1,2.2,9.2,3.1c1,0.3,1.6,1.4,1.3,2.5
					C712.2,1084.2,711.5,1084.7,710.6,1084.7z M797.6,1078.2c-0.7,0-1.5-0.4-1.8-1.1c-0.5-1,0-2.2,0.9-2.6c2.9-1.4,5.8-2.9,8.6-4.5
					c0.9-0.5,2.2-0.2,2.7,0.7c0.5,0.9,0.2,2.2-0.7,2.7c-2.9,1.7-5.9,3.2-8.9,4.6C798.2,1078.1,797.9,1078.2,797.6,1078.2z
					 M692.1,1077.6c-0.3,0-0.6-0.1-0.9-0.2c-3-1.4-6-3-8.9-4.8c-0.9-0.6-1.3-1.8-0.7-2.7c0.6-0.9,1.8-1.3,2.7-0.7
					c2.8,1.6,5.7,3.2,8.6,4.6c1,0.5,1.4,1.7,0.9,2.6C693.6,1077.2,692.9,1077.6,692.1,1077.6z M814.8,1068.4c-0.6,0-1.2-0.3-1.6-0.9
					c-0.6-0.9-0.4-2.1,0.5-2.7c2.7-1.8,5.3-3.8,7.8-5.8c0.8-0.7,2.1-0.6,2.8,0.3c0.7,0.8,0.6,2.1-0.3,2.8c-2.6,2.1-5.3,4.1-8.1,6
					C815.6,1068.2,815.2,1068.4,814.8,1068.4z M830.2,1055.9c-0.5,0-1-0.2-1.4-0.6c-0.8-0.8-0.7-2,0.1-2.8c2.3-2.2,4.6-4.6,6.8-7
					c0.7-0.8,2-0.9,2.8-0.2c0.8,0.7,0.9,2,0.2,2.8c-2.2,2.5-4.6,4.9-7,7.2C831.2,1055.7,830.7,1055.9,830.2,1055.9z M843.4,1041.1
					c-0.4,0-0.8-0.1-1.2-0.4c-0.9-0.7-1-1.9-0.4-2.8c2-2.6,3.8-5.3,5.6-8c0.6-0.9,1.8-1.2,2.7-0.6c0.9,0.6,1.2,1.8,0.6,2.7
					c-1.8,2.8-3.7,5.6-5.8,8.3C844.6,1040.8,844,1041.1,843.4,1041.1z M854,1024.4c-0.3,0-0.6-0.1-0.9-0.2c-1-0.5-1.3-1.7-0.8-2.7
					c1.5-2.9,2.9-5.8,4.2-8.8c0.4-1,1.6-1.5,2.6-1c1,0.4,1.5,1.6,1,2.6c-1.3,3.1-2.8,6.1-4.3,9.1
					C855.4,1024,854.7,1024.4,854,1024.4z M861.8,1006.2c-0.2,0-0.4,0-0.6-0.1c-1-0.3-1.6-1.5-1.2-2.5c1-3.1,1.9-6.2,2.7-9.4
					c0.3-1.1,1.3-1.7,2.4-1.4c1.1,0.3,1.7,1.3,1.4,2.4c-0.8,3.3-1.7,6.5-2.8,9.7C863.4,1005.7,862.7,1006.2,861.8,1006.2z
					 M866.6,987c-0.1,0-0.2,0-0.3,0c-1.1-0.2-1.8-1.2-1.6-2.3c0.5-3.2,0.9-6.5,1.2-9.7c0.1-1.1,1-1.9,2.1-1.8c1.1,0.1,1.9,1,1.8,2.1
					c-0.3,3.3-0.7,6.7-1.2,10C868.4,986.3,867.5,987,866.6,987z M868.2,967.2c-1.1,0-2-0.9-2-2V965c0-3.2-0.1-6.4-0.4-9.5
					c-0.1-1.1,0.7-2,1.8-2.1c1.1-0.1,2,0.7,2.1,1.8c0.3,3.2,0.4,6.5,0.4,9.8v0.3C870.2,966.4,869.3,967.2,868.2,967.2z"/>
				<linearGradient id="SVGID_41_" gradientUnits="userSpaceOnUse" x1="669.0062" y1="1064.0264" x2="676.9392" y2="1064.0264">
					<stop  offset="0" style="stop-color:#FE7062"/>
					<stop  offset="1" style="stop-color:#FF928E"/>
				</linearGradient>
				<path class="st46" d="M675,1067.5c-0.4,0-0.8-0.1-1.1-0.4c-1.4-1-2.7-2-4-3c-0.9-0.7-1-1.9-0.4-2.8c0.7-0.9,1.9-1,2.8-0.4
					c1.3,1,2.6,1.9,3.9,2.9c0.9,0.6,1.1,1.9,0.5,2.8C676.2,1067.2,675.6,1067.5,675,1067.5z"/>
			</g>
			<g>
				<linearGradient id="SVGID_42_" gradientUnits="userSpaceOnUse" x1="852.5276" y1="785.6712" x2="692.5515" y2="1052.7496">
					<stop  offset="0" style="stop-color:#FE7062"/>
					<stop  offset="1" style="stop-color:#FF928E"/>
				</linearGradient>
				<path class="st47" d="M679.3,1032.2c0.4,0.5,1.1,0.7,1.6,0.5l16.8-6.2c6.6,5.1,14.1,9.2,22.3,12l4.1,17.4
					c0.1,0.6,0.7,1.1,1.3,1.1l21.4,2.2c0.6,0.1,1.2-0.3,1.5-0.8l7.5-16.3c8.5-1.1,16.7-3.6,24.2-7.3l15.2,9.4
					c0.5,0.3,1.2,0.3,1.7-0.1l16.7-13.6c0.5-0.4,0.7-1.1,0.5-1.6l-6.2-16.8c5.1-6.6,9.2-14.1,12-22.3l17.4-4.1
					c0.6-0.1,1.1-0.7,1.1-1.3l2.2-21.4c0.1-0.6-0.3-1.2-0.8-1.5l-16.3-7.5c-1.1-8.5-3.6-16.7-7.3-24.2l9.4-15.2
					c0.3-0.5,0.3-1.2-0.1-1.7l-13.6-16.7c-0.4-0.5-1.1-0.7-1.6-0.5l-16.8,6.2c-6.6-5.1-14.1-9.2-22.3-12l-4.1-17.4
					c-0.1-0.6-0.7-1.1-1.3-1.1l-21.4-2.2c-0.6-0.1-1.2,0.3-1.5,0.8l-7.5,16.3c-8.5,1.1-16.7,3.6-24.2,7.3l-15.2-9.4
					c-0.5-0.3-1.2-0.3-1.7,0.1l-16.7,13.6c-0.5,0.4-0.7,1.1-0.5,1.6l6.2,16.8c-5.1,6.6-9.2,14.1-12,22.3l-17.4,4.1
					c-0.6,0.1-1.1,0.7-1.1,1.3l-2.2,21.4c-0.1,0.6,0.3,1.2,0.8,1.5l16.3,7.5c1.1,8.5,3.6,16.7,7.3,24.2l-9.4,15.2
					c-0.3,0.5-0.3,1.2,0.1,1.7L679.3,1032.2z"/>
				<linearGradient id="SVGID_43_" gradientUnits="userSpaceOnUse" x1="928.2302" y1="145.3199" x2="835.2213" y2="562.3615">
					<stop  offset="0" style="stop-color:#FF928E"/>
					<stop  offset="1" style="stop-color:#FEB3B1"/>
				</linearGradient>
				<path class="st48" d="M745.6,985.2c-10.3,0-19.3-7.5-20.8-18c-1.7-11.5,6.3-22.2,17.8-23.9c11.5-1.7,22.2,6.3,23.9,17.8
					c1.7,11.5-6.3,22.2-17.8,23.9l0,0C747.6,985.2,746.6,985.2,745.6,985.2z M748.4,983L748.4,983L748.4,983z M745.6,947.1
					c-0.8,0-1.7,0.1-2.5,0.2c-9.3,1.4-15.8,10.1-14.4,19.4c1.4,9.3,10.1,15.8,19.4,14.4l0,0c9.3-1.4,15.8-10.1,14.4-19.4
					C761.3,953.2,754,947.1,745.6,947.1z"/>
				<linearGradient id="SVGID_44_" gradientUnits="userSpaceOnUse" x1="928.4759" y1="145.3766" x2="835.467" y2="562.418">
					<stop  offset="0" style="stop-color:#FF928E"/>
					<stop  offset="1" style="stop-color:#FEB3B1"/>
				</linearGradient>
				<path class="st49" d="M746,1017.7c-1.8,0-3.7-0.1-5.5-0.3c-3.6-0.4-7.2-1.1-10.7-2.2c-0.2-0.1-0.4-0.1-0.6-0.2
					c-0.8-0.3-1.4-1-1.4-1.9c0-0.2,0-0.4,0.1-0.6c0.3-1,1.4-1.6,2.5-1.3c3.4,1.1,6.9,1.8,10.4,2.2l0,0c0.1,0,0.1,0,0.2,0
					c8.3,0.8,16.5-0.4,24-3.6c4.4-1.8,8.5-4.3,12.3-7.4c10.3-8.4,16.7-20.4,18.1-33.6c0.2-1.7,0.3-3.4,0.3-5.1
					c0-11.4-3.9-22.5-11.2-31.4c-8.4-10.3-20.4-16.7-33.6-18.1c-13.3-1.3-26.2,2.6-36.6,11c-10.3,8.4-16.7,20.4-18.1,33.6
					c-0.2,1.7-0.3,3.4-0.3,5.1c0,7.3,1.6,14.5,4.7,21.1c0.1,0.3,0.2,0.6,0.2,0.8c0,0.7-0.4,1.5-1.1,1.8c-1,0.5-2.2,0-2.6-0.9
					c-3.4-7.1-5.1-14.9-5.1-22.8c0-1.8,0.1-3.6,0.3-5.5c1.4-14.3,8.4-27.2,19.5-36.3c11.1-9.1,25.2-13.3,39.5-11.9
					c14.3,1.4,27.2,8.4,36.3,19.5c7.9,9.7,12.1,21.6,12.1,33.9c0,1.8-0.1,3.7-0.3,5.5c-1.4,14.3-8.4,27.2-19.5,36.3
					C770.3,1013.5,758.4,1017.7,746,1017.7z"/>
			</g>
		</g>
		<g>
			<g class="st22">
				<linearGradient id="SVGID_45_" gradientUnits="userSpaceOnUse" x1="1646.9626" y1="566.3253" x2="1658.9142" y2="566.3253">
					<stop  offset="0" style="stop-color:#FE7062"/>
					<stop  offset="1" style="stop-color:#FF928E"/>
				</linearGradient>
				<path class="st50" d="M1654,575.1c-2.1,0-4.1-1.4-4.7-3.6c-0.8-2.6-1.5-5.2-2.1-7.8c-0.7-2.6,1-5.3,3.6-6c2.7-0.6,5.3,1,6,3.6
					c0.6,2.5,1.3,5,2,7.4c0.8,2.6-0.7,5.4-3.4,6.1C1654.9,575,1654.4,575.1,1654,575.1z"/>
				<linearGradient id="SVGID_46_" gradientUnits="userSpaceOnUse" x1="1641.4402" y1="431.9985" x2="1919.0151" y2="431.9985">
					<stop  offset="0" style="stop-color:#FE7062"/>
					<stop  offset="1" style="stop-color:#FF928E"/>
				</linearGradient>
				<path class="st51" d="M1647.4,541.6c-2.5,0-4.6-1.9-4.9-4.4c-0.6-5.5-0.9-11.1-1-16.6c-0.1-2.7,2.1-5,4.8-5c2.8,0,5,2.1,5,4.9
					c0.1,5.2,0.4,10.5,1,15.7c0.3,2.7-1.7,5.1-4.4,5.4C1647.7,541.6,1647.5,541.6,1647.4,541.6z M1647.7,499.2c-0.2,0-0.4,0-0.6,0
					c-2.7-0.3-4.6-2.8-4.3-5.5c0.7-5.5,1.5-11,2.7-16.4c0.6-2.7,3.2-4.4,5.8-3.8c2.7,0.6,4.4,3.2,3.8,5.8
					c-1.1,5.1-1.9,10.3-2.5,15.5C1652.3,497.4,1650.2,499.2,1647.7,499.2z M1657.3,458c-0.6,0-1.1-0.1-1.7-0.3
					c-2.6-0.9-3.9-3.7-3-6.3c1.8-5.2,3.9-10.4,6.2-15.4c1.1-2.5,4.1-3.6,6.5-2.4c2.5,1.1,3.6,4.1,2.4,6.5c-2.2,4.8-4.2,9.7-5.9,14.6
					C1661.3,456.7,1659.4,458,1657.3,458z M1676,419.9c-0.9,0-1.8-0.3-2.7-0.8c-2.3-1.5-3-4.5-1.5-6.8c3-4.6,6.2-9.2,9.5-13.6
					c1.7-2.2,4.8-2.6,6.9-0.9c2.2,1.7,2.6,4.8,0.9,6.9c-3.2,4.2-6.2,8.5-9,12.9C1679.2,419.1,1677.6,419.9,1676,419.9z M1702.6,387
					c-1.3,0-2.5-0.5-3.5-1.5c-1.9-1.9-1.9-5.1,0-7c3.9-3.9,8.1-7.6,12.3-11.1c2.1-1.7,5.2-1.5,7,0.6c1.7,2.1,1.5,5.2-0.6,7
					c-4,3.3-7.9,6.9-11.7,10.6C1705.1,386.5,1703.9,387,1702.6,387z M1735.9,360.8c-1.7,0-3.3-0.8-4.2-2.3c-1.4-2.3-0.7-5.4,1.6-6.8
					c4.7-2.9,9.5-5.7,14.4-8.2c2.4-1.2,5.4-0.3,6.6,2.2c1.2,2.4,0.3,5.4-2.2,6.6c-4.7,2.4-9.3,5-13.7,7.7
					C1737.7,360.5,1736.8,360.8,1735.9,360.8z M1914.1,349.1c-0.7,0-1.4-0.1-2-0.4c-4.8-2.2-9.7-4.1-14.6-5.9
					c-2.6-0.9-3.9-3.7-3-6.3c0.9-2.6,3.7-3.9,6.3-3c5.2,1.8,10.4,3.9,15.4,6.2c2.5,1.1,3.6,4.1,2.5,6.5
					C1917.7,348,1915.9,349.1,1914.1,349.1z M1774.1,342.5c-2.1,0-4-1.3-4.7-3.3c-0.9-2.6,0.5-5.4,3.1-6.3
					c5.2-1.8,10.6-3.4,15.9-4.7c2.7-0.7,5.3,0.9,6,3.6c0.7,2.6-0.9,5.3-3.6,6c-5.1,1.3-10.1,2.8-15.1,4.5
					C1775.2,342.5,1774.6,342.5,1774.1,342.5z M1873.8,336.1c-0.3,0-0.7,0-1-0.1c-5.1-1-10.4-1.9-15.6-2.5c-2.7-0.3-4.7-2.8-4.3-5.5
					c0.3-2.7,2.8-4.7,5.5-4.3c5.5,0.6,11,1.5,16.4,2.6c2.7,0.5,4.4,3.2,3.9,5.8C1878.1,334.5,1876.1,336.1,1873.8,336.1z
					 M1815.4,333.3c-2.5,0-4.6-1.9-4.9-4.4c-0.3-2.7,1.7-5.1,4.4-5.4c5.5-0.6,11-0.9,16.6-1.1c0,0,0.1,0,0.1,0
					c2.7,0,4.9,2.1,4.9,4.8c0.1,2.7-2.1,5-4.8,5c-5.2,0.1-10.5,0.4-15.7,1C1815.8,333.3,1815.6,333.3,1815.4,333.3z"/>
				<linearGradient id="SVGID_47_" gradientUnits="userSpaceOnUse" x1="1932.3489" y1="358.9232" x2="1948.8134" y2="358.9232">
					<stop  offset="0" style="stop-color:#FE7062"/>
					<stop  offset="1" style="stop-color:#FF928E"/>
				</linearGradient>
				<path class="st52" d="M1943.9,366.1c-1,0-2-0.3-2.8-0.9c-2.1-1.4-4.2-2.9-6.4-4.3c-2.3-1.5-3-4.5-1.5-6.8c1.5-2.3,4.5-3,6.8-1.5
					c2.3,1.5,4.6,3,6.8,4.5c2.2,1.6,2.8,4.6,1.2,6.9C1947,365.3,1945.4,366.1,1943.9,366.1z"/>
			</g>
			<g class="st22">
				<linearGradient id="SVGID_48_" gradientUnits="userSpaceOnUse" x1="2016.5809" y1="482.8651" x2="2027.8755" y2="482.8651">
					<stop  offset="0" style="stop-color:#FE7062"/>
					<stop  offset="1" style="stop-color:#FF928E"/>
				</linearGradient>
				<path class="st53" d="M2022.9,491.7c-2.4,0-4.5-1.7-4.9-4.2c-0.4-2.5-0.9-5.1-1.4-7.6c-0.5-2.7,1.2-5.3,3.9-5.8
					c2.7-0.5,5.3,1.2,5.8,3.9c0.5,2.6,1,5.3,1.4,8c0.4,2.7-1.4,5.2-4.1,5.7C2023.4,491.7,2023.2,491.7,2022.9,491.7z"/>
				<linearGradient id="SVGID_49_" gradientUnits="userSpaceOnUse" x1="1744.3257" y1="609.373" x2="2030.2336" y2="609.373">
					<stop  offset="0" style="stop-color:#FE7062"/>
					<stop  offset="1" style="stop-color:#FF928E"/>
				</linearGradient>
				<path class="st54" d="M1836.1,711.2c-2.3,0-4.5,0-6.8-0.1c-2.7-0.1-4.9-2.4-4.8-5.1c0.1-2.7,2.4-4.9,5.1-4.8
					c2.2,0.1,4.3,0.1,6.5,0.1c3,0,6-0.1,9-0.2c2.8-0.1,5,2,5.2,4.7c0.1,2.7-2,5-4.7,5.2C1842.5,711.1,1839.3,711.2,1836.1,711.2z
					 M1803.8,708.5c-0.3,0-0.6,0-0.8-0.1c-5.4-0.9-10.7-2.1-16-3.4c-2.6-0.7-4.2-3.4-3.6-6c0.7-2.6,3.4-4.2,6-3.5
					c5,1.3,10.1,2.4,15.2,3.2c2.7,0.5,4.5,3,4,5.7C1808.2,706.8,1806.2,708.5,1803.8,708.5z M1871.1,707.9c-2.3,0-4.4-1.7-4.9-4
					c-0.5-2.7,1.3-5.3,3.9-5.8c5.1-1,10.1-2.1,15.1-3.5c2.6-0.7,5.4,0.8,6.1,3.4c0.7,2.6-0.8,5.4-3.4,6.1
					c-5.2,1.4-10.6,2.7-15.9,3.7C1871.7,707.9,1871.4,707.9,1871.1,707.9z M1763.7,697c-0.6,0-1.3-0.1-1.9-0.4
					c-5-2.1-10-4.4-14.8-6.8c-2.4-1.2-3.4-4.2-2.1-6.7c1.2-2.4,4.2-3.4,6.7-2.1c4.6,2.3,9.3,4.5,14.1,6.5c2.5,1,3.7,3.9,2.7,6.4
					C1767.5,695.8,1765.7,697,1763.7,697z M1910.9,695.7c-1.9,0-3.7-1.1-4.5-3c-1.1-2.5,0.1-5.4,2.6-6.5c4.7-2.1,9.4-4.3,13.9-6.7
					c2.4-1.3,5.4-0.4,6.7,2c1.3,2.4,0.4,5.4-2,6.7c-4.8,2.6-9.7,4.9-14.7,7.1C1912.2,695.6,1911.5,695.7,1910.9,695.7z
					 M1947.1,675.1c-1.5,0-3-0.7-4-2c-1.6-2.2-1.1-5.3,1.1-6.9c4.2-3,8.3-6.3,12.1-9.6c2.1-1.8,5.2-1.6,7,0.5c1.8,2.1,1.6,5.2-0.5,7
					c-4.1,3.5-8.4,6.9-12.8,10.1C1949.1,674.8,1948.1,675.1,1947.1,675.1z M1977.9,647c-1.2,0-2.3-0.4-3.3-1.2c-2-1.8-2.2-4.9-0.4-7
					c3.4-3.9,6.7-7.9,9.8-12c1.6-2.2,4.7-2.6,6.9-1c2.2,1.6,2.6,4.7,1,6.9c-3.2,4.3-6.7,8.6-10.3,12.7
					C1980.7,646.5,1979.3,647,1977.9,647z M2001.9,612.9c-0.8,0-1.6-0.2-2.4-0.6c-2.4-1.3-3.3-4.3-1.9-6.7c2.5-4.5,4.8-9.2,6.9-13.9
					c1.1-2.5,4-3.6,6.5-2.5c2.5,1.1,3.6,4,2.5,6.5c-2.2,5-4.6,9.9-7.3,14.6C2005.4,612,2003.7,612.9,2001.9,612.9z M2017.9,574.4
					c-0.5,0-0.9-0.1-1.4-0.2c-2.6-0.8-4.1-3.5-3.4-6.1c1.4-4.9,2.7-10,3.7-15c0.5-2.7,3.1-4.4,5.8-3.9c2.7,0.5,4.4,3.1,3.9,5.8
					c-1.1,5.3-2.4,10.7-3.9,15.9C2022,573,2020,574.4,2017.9,574.4z M2024.9,533.3c-0.1,0-0.2,0-0.3,0c-2.7-0.2-4.8-2.5-4.6-5.2
					c0.2-3.8,0.4-7.7,0.4-11.5c0-1.3,0-2.7,0-4c-0.1-2.7,2.1-5,4.8-5c2.7-0.1,5,2.1,5,4.8c0,1.4,0,2.8,0,4.2c0,4-0.1,8.1-0.4,12.1
					C2029.7,531.3,2027.5,533.3,2024.9,533.3z"/>
				<linearGradient id="SVGID_50_" gradientUnits="userSpaceOnUse" x1="1715.736" y1="669.6047" x2="1731.9901" y2="669.6047">
					<stop  offset="0" style="stop-color:#FE7062"/>
					<stop  offset="1" style="stop-color:#FF928E"/>
				</linearGradient>
				<path class="st55" d="M1727,676.9c-1,0-2-0.3-2.8-0.9c-2.2-1.6-4.4-3.2-6.5-4.8c-2.2-1.7-2.6-4.8-0.9-6.9
					c1.7-2.2,4.8-2.6,6.9-0.9c2,1.5,4.1,3.1,6.2,4.6c2.2,1.6,2.8,4.7,1.2,6.9C1730.1,676.2,1728.6,676.9,1727,676.9z"/>
			</g>
			<g>
				<linearGradient id="SVGID_51_" gradientUnits="userSpaceOnUse" x1="1851.8147" y1="500.3699" x2="2046.6521" y2="317.2229">
					<stop  offset="0" style="stop-color:#FE7062"/>
					<stop  offset="1" style="stop-color:#FF928E"/>
				</linearGradient>
				<path class="st56" d="M1733.5,620.3c0.6,0.8,1.6,1,2.5,0.7l26-9.6c10.2,7.9,21.8,14.2,34.4,18.5l6.3,26.9c0.2,0.9,1,1.6,2,1.7
					l33,3.3c1,0.1,1.9-0.4,2.3-1.3l11.6-25.1c13.2-1.7,25.8-5.6,37.4-11.2l23.5,14.6c0.8,0.5,1.9,0.4,2.6-0.2l25.7-21
					c0.8-0.6,1-1.6,0.7-2.5l-9.6-26c7.9-10.2,14.2-21.8,18.5-34.4l26.9-6.3c0.9-0.2,1.6-1,1.7-2l3.3-33c0.1-1-0.4-1.9-1.3-2.3
					l-25.1-11.6c-1.7-13.2-5.6-25.8-11.2-37.4l14.6-23.5c0.5-0.8,0.4-1.9-0.2-2.6l-21-25.7c-0.6-0.8-1.6-1-2.5-0.7l-26,9.6
					c-10.2-7.9-21.8-14.2-34.4-18.5l-6.3-26.9c-0.2-0.9-1-1.6-2-1.7l-33-3.3c-1-0.1-1.9,0.4-2.3,1.3l-11.6,25.1
					c-13.2,1.7-25.8,5.6-37.4,11.2l-23.5-14.6c-0.8-0.5-1.9-0.4-2.6,0.2l-25.7,21c-0.8,0.6-1,1.6-0.7,2.5l9.6,26
					c-7.9,10.2-14.2,21.8-18.5,34.4l-26.9,6.3c-0.9,0.2-1.6,1-1.7,2l-3.3,33c-0.1,1,0.4,1.9,1.3,2.3l25.1,11.6
					c1.7,13.2,5.6,25.8,11.2,37.4l-14.6,23.5c-0.5,0.8-0.4,1.9,0.2,2.6L1733.5,620.3z"/>
				<linearGradient id="SVGID_52_" gradientUnits="userSpaceOnUse" x1="1790.3275" y1="-208.0963" x2="1811.3298" y2="124.937">
					<stop  offset="0" style="stop-color:#FF928E"/>
					<stop  offset="1" style="stop-color:#FEB3B1"/>
				</linearGradient>
				<path class="st57" d="M1835.9,550.7c-7.6,0-14.9-2.4-21-7c-7.6-5.6-12.5-13.9-13.9-23.3c-1.4-9.4,1-18.7,6.6-26.3
					c5.6-7.6,13.9-12.5,23.3-13.9c9.4-1.4,18.7,1,26.3,6.6c7.6,5.6,12.5,13.9,13.9,23.3c2.8,19.3-10.6,37.3-29.9,40.2l0,0
					C1839.4,550.6,1837.6,550.7,1835.9,550.7z M1840.2,544.4L1840.2,544.4L1840.2,544.4z M1836,491.7c-1.2,0-2.3,0.1-3.5,0.3
					c-6.2,0.9-11.7,4.2-15.5,9.3c-3.8,5-5.3,11.3-4.4,17.5s4.2,11.7,9.3,15.5c5,3.8,11.3,5.3,17.5,4.4c12.8-1.9,21.8-13.9,19.9-26.7
					c-0.9-6.2-4.2-11.7-9.3-15.5C1845.9,493.3,1841,491.7,1836,491.7z"/>
				<linearGradient id="SVGID_53_" gradientUnits="userSpaceOnUse" x1="1790.8667" y1="-208.1301" x2="1811.8689" y2="124.9036">
					<stop  offset="0" style="stop-color:#FF928E"/>
					<stop  offset="1" style="stop-color:#FEB3B1"/>
				</linearGradient>
				<path class="st58" d="M1836.6,596.9c-2.8,0-5.6-0.1-8.4-0.4c0,0,0,0,0,0c-5.8-0.6-11.6-1.8-17.1-3.6c-0.8-0.3-1.4-1-1.4-1.9
					c0-0.2,0-0.4,0.1-0.6c0.3-1,1.4-1.6,2.5-1.3c5.3,1.7,10.7,2.8,16.3,3.4c20.8,2.1,41.1-4,57.3-17.2
					c16.2-13.2,26.2-31.9,28.3-52.7c0.3-2.7,0.4-5.4,0.4-8c0-17.9-6.1-35.2-17.6-49.2c-13.2-16.2-31.9-26.2-52.7-28.3
					c-42.9-4.4-81.3,27-85.6,69.9c-0.3,2.6-0.4,5.3-0.4,7.9c0,11.4,2.5,22.7,7.4,33.1c0.1,0.3,0.2,0.6,0.2,0.8
					c0,0.7-0.4,1.5-1.1,1.8c-1,0.5-2.2,0-2.6-0.9c-5.1-10.9-7.7-22.8-7.7-34.8c0-2.8,0.1-5.6,0.4-8.3c4.6-45,44.9-77.9,89.9-73.4
					c42.2,4.3,73.8,40,73.8,81.6c0,2.8-0.1,5.5-0.4,8.3c-2.2,21.8-12.8,41.5-29.8,55.3C1873.6,590.5,1855.4,596.9,1836.6,596.9z"/>
			</g>
		</g>
		<g>
			<g class="st22">
				<linearGradient id="SVGID_54_" gradientUnits="userSpaceOnUse" x1="1923.4031" y1="349.2875" x2="1935.2162" y2="349.2875">
					<stop  offset="0" style="stop-color:#FE7062"/>
					<stop  offset="1" style="stop-color:#FF928E"/>
				</linearGradient>
				<path class="st59" d="M1930.3,358.1c-2.1,0-4.1-1.4-4.7-3.6c-0.8-2.6-1.5-5.3-2-8c-0.6-2.7,1.1-5.3,3.8-5.9
					c2.7-0.6,5.3,1.1,5.9,3.8c0.5,2.4,1.1,4.9,1.8,7.3c0.8,2.6-0.7,5.4-3.3,6.1C1931.2,358,1930.7,358.1,1930.3,358.1z"/>
				<linearGradient id="SVGID_55_" gradientUnits="userSpaceOnUse" x1="1921.3545" y1="271.6429" x2="2060.2944" y2="271.6429">
					<stop  offset="0" style="stop-color:#FE7062"/>
					<stop  offset="1" style="stop-color:#FF928E"/>
				</linearGradient>
				<path class="st60" d="M1926.3,324.7c-0.1,0-0.2,0-0.2,0c-2.7-0.1-4.8-2.4-4.7-5.2c0-0.8,0.1-1.6,0.1-2.4c0.3-4.7,1-9.5,1.9-14.1
					c0.5-2.7,3.2-4.4,5.8-3.9c2.7,0.5,4.4,3.2,3.9,5.8c-0.9,4.2-1.4,8.5-1.7,12.8c-0.1,0.7-0.1,1.5-0.1,2.2
					C1931.1,322.6,1928.9,324.7,1926.3,324.7z M1936.6,284.6c-0.7,0-1.5-0.2-2.2-0.5c-2.4-1.2-3.5-4.2-2.3-6.6
					c2.4-5,5.3-9.8,8.5-14.3c1.6-2.2,4.7-2.8,6.9-1.2c2.2,1.6,2.8,4.7,1.2,6.9c-2.9,4.1-5.5,8.5-7.7,13
					C1940.2,283.5,1938.4,284.6,1936.6,284.6z M1962.1,251.9c-1.4,0-2.8-0.6-3.8-1.7c-1.8-2.1-1.5-5.2,0.6-7
					c4.2-3.6,8.8-6.9,13.5-9.8c2.3-1.4,5.4-0.7,6.8,1.6c1.4,2.3,0.7,5.4-1.6,6.8c-4.3,2.6-8.4,5.6-12.2,8.9
					C1964.4,251.5,1963.2,251.9,1962.1,251.9z M1998.5,232.1c-2.1,0-4.1-1.4-4.7-3.5c-0.8-2.6,0.7-5.4,3.3-6.2
					c5.3-1.6,10.8-2.8,16.3-3.5c2.7-0.4,5.2,1.5,5.6,4.2c0.4,2.7-1.5,5.2-4.2,5.6c-5,0.7-9.9,1.8-14.8,3.2
					C1999.4,232,1999,232.1,1998.5,232.1z M2055.4,231.5c-0.4,0-0.9-0.1-1.3-0.2c-4.8-1.4-9.8-2.3-14.8-2.9
					c-2.7-0.3-4.7-2.8-4.3-5.5c0.3-2.7,2.8-4.6,5.5-4.3c5.5,0.6,11,1.7,16.3,3.2c2.6,0.7,4.2,3.5,3.4,6.1
					C2059.5,230.1,2057.5,231.5,2055.4,231.5z"/>
				<linearGradient id="SVGID_56_" gradientUnits="userSpaceOnUse" x1="2074.2354" y1="238.8274" x2="2090.7783" y2="238.8274">
					<stop  offset="0" style="stop-color:#FE7062"/>
					<stop  offset="1" style="stop-color:#FF928E"/>
				</linearGradient>
				<path class="st61" d="M2085.8,245.9c-1,0-2-0.3-2.8-0.9c-2-1.4-4.2-2.8-6.3-4c-2.4-1.4-3.1-4.4-1.8-6.8c1.4-2.4,4.4-3.1,6.8-1.8
					c2.4,1.4,4.7,2.9,7,4.5c2.2,1.6,2.8,4.6,1.2,6.9C2088.9,245.2,2087.4,245.9,2085.8,245.9z"/>
			</g>
			<g class="st22">
				<linearGradient id="SVGID_57_" gradientUnits="userSpaceOnUse" x1="2122.5618" y1="308.1033" x2="2133.7153" y2="308.1033">
					<stop  offset="0" style="stop-color:#FE7062"/>
					<stop  offset="1" style="stop-color:#FF928E"/>
				</linearGradient>
				<path class="st62" d="M2128.8,316.9c-2.5,0-4.6-1.8-4.9-4.3c-0.3-2.5-0.7-5-1.2-7.4c-0.5-2.7,1.2-5.3,3.9-5.8
					c2.7-0.6,5.3,1.2,5.8,3.9c0.5,2.7,1,5.4,1.3,8.2c0.3,2.7-1.6,5.2-4.3,5.5C2129.2,316.9,2129,316.9,2128.8,316.9z"/>
				<linearGradient id="SVGID_58_" gradientUnits="userSpaceOnUse" x1="1990.4934" y1="381.6062" x2="2133.6492" y2="381.6062">
					<stop  offset="0" style="stop-color:#FE7062"/>
					<stop  offset="1" style="stop-color:#FF928E"/>
				</linearGradient>
				<path class="st63" d="M2035.9,430.8c-2.6,0-4.7-2-4.9-4.6c-0.2-2.7,1.8-5.1,4.5-5.3c4.9-0.4,9.9-1.2,14.7-2.3
					c2.7-0.6,5.3,1,5.9,3.7c0.6,2.7-1,5.3-3.7,5.9c-5.3,1.3-10.7,2.1-16.2,2.5C2036.2,430.8,2036,430.8,2035.9,430.8z M2010.6,429.6
					c-0.3,0-0.6,0-0.8-0.1c-5.4-0.9-10.7-2.3-15.9-4c-2.6-0.9-4-3.7-3.1-6.3c0.9-2.6,3.7-4,6.3-3.1c4.7,1.6,9.5,2.8,14.4,3.6
					c2.7,0.5,4.5,3,4,5.7C2015,427.9,2013,429.6,2010.6,429.6z M2075.1,419.5c-1.8,0-3.5-1-4.4-2.6c-1.3-2.4-0.3-5.4,2.1-6.7
					c4.4-2.3,8.6-5,12.6-7.9c2.2-1.6,5.3-1.2,6.9,1c1.6,2.2,1.2,5.3-1,6.9c-4.4,3.2-9.1,6.2-13.9,8.7
					C2076.6,419.3,2075.8,419.5,2075.1,419.5z M2106.6,393.7c-1.1,0-2.2-0.4-3.1-1.1c-2.1-1.7-2.4-4.8-0.7-7c3.1-3.8,6-7.9,8.5-12.2
					c1.4-2.4,4.4-3.1,6.8-1.8c2.4,1.4,3.1,4.4,1.8,6.8c-2.8,4.7-5.9,9.2-9.4,13.4C2109.5,393.1,2108.1,393.7,2106.6,393.7z
					 M2125.6,357.6c-0.5,0-0.9-0.1-1.4-0.2c-2.6-0.8-4.1-3.5-3.4-6.1c1.4-4.7,2.4-9.6,3-14.6c0.3-2.7,2.8-4.6,5.5-4.3
					c2.7,0.3,4.6,2.8,4.3,5.5c-0.7,5.4-1.8,10.8-3.3,16C2129.7,356.2,2127.7,357.6,2125.6,357.6z"/>
				<linearGradient id="SVGID_59_" gradientUnits="userSpaceOnUse" x1="1961.1261" y1="407.5222" x2="1977.4641" y2="407.5222">
					<stop  offset="0" style="stop-color:#FE7062"/>
					<stop  offset="1" style="stop-color:#FF928E"/>
				</linearGradient>
				<path class="st64" d="M1972.5,414.7c-0.9,0-1.9-0.3-2.7-0.8c-2.3-1.5-4.6-3.1-6.8-4.8c-2.2-1.7-2.6-4.8-0.9-6.9
					c1.7-2.2,4.8-2.6,6.9-0.9c2,1.5,4,3,6.1,4.3c2.3,1.5,2.9,4.5,1.4,6.8C1975.7,414,1974.1,414.7,1972.5,414.7z"/>
			</g>
			<g>
				<linearGradient id="SVGID_60_" gradientUnits="userSpaceOnUse" x1="2149.3208" y1="181.3976" x2="1712.0974" y2="693.8633">
					<stop  offset="0" style="stop-color:#FE7062"/>
					<stop  offset="1" style="stop-color:#FF928E"/>
				</linearGradient>
				<path class="st65" d="M1973,380c0.3,0.4,0.9,0.6,1.4,0.4l13.9-5.1c5.5,4.2,11.7,7.6,18.5,9.9l3.4,14.4c0.1,0.5,0.5,0.9,1.1,0.9
					l17.7,1.8c0.5,0.1,1-0.2,1.2-0.7l6.2-13.5c7.1-0.9,13.8-3,20.1-6l12.6,7.8c0.4,0.3,1,0.2,1.4-0.1l13.8-11.3
					c0.4-0.3,0.6-0.9,0.4-1.4l-5.1-13.9c4.2-5.5,7.6-11.7,9.9-18.5l14.4-3.4c0.5-0.1,0.9-0.5,0.9-1.1l1.8-17.7
					c0.1-0.5-0.2-1-0.7-1.2l-13.5-6.2c-0.9-7.1-3-13.8-6-20.1l7.8-12.6c0.3-0.4,0.2-1-0.1-1.4l-11.3-13.8c-0.3-0.4-0.9-0.6-1.4-0.4
					l-13.9,5.1c-5.5-4.2-11.7-7.6-18.5-9.9l-3.4-14.4c-0.1-0.5-0.5-0.9-1.1-0.9l-17.7-1.8c-0.5-0.1-1,0.2-1.2,0.7l-6.2,13.5
					c-7.1,0.9-13.8,3-20.1,6l-12.6-7.8c-0.4-0.3-1-0.2-1.4,0.1l-13.8,11.3c-0.4,0.3-0.6,0.9-0.4,1.4l5.1,13.9
					c-4.2,5.5-7.6,11.7-9.9,18.5l-14.4,3.4c-0.5,0.1-0.9,0.5-0.9,1.1l-1.8,17.7c-0.1,0.5,0.2,1,0.7,1.2l13.5,6.2
					c0.9,7.1,3,13.8,6,20.1l-7.8,12.6c-0.3,0.4-0.2,1,0.1,1.4L1973,380z"/>
				<linearGradient id="SVGID_61_" gradientUnits="userSpaceOnUse" x1="2132.8833" y1="-214.7829" x2="2063.8765" y2="139.2526">
					<stop  offset="0" style="stop-color:#FF928E"/>
					<stop  offset="1" style="stop-color:#FEB3B1"/>
				</linearGradient>
				<path class="st66" d="M2027.9,345.4c-4.6,0-9.1-1.5-12.9-4.3c-4.7-3.5-7.7-8.5-8.5-14.3c-1.7-11.9,6.5-22.9,18.3-24.7
					c5.7-0.8,11.5,0.6,16.1,4.1c4.7,3.5,7.7,8.5,8.5,14.3c0.8,5.7-0.6,11.5-4.1,16.1c-3.5,4.7-8.5,7.7-14.3,8.5l0,0
					C2030,345.4,2028.9,345.4,2027.9,345.4z M2027.9,313.8c-0.5,0-1,0-1.5,0.1c-5.4,0.8-9.1,5.8-8.3,11.2c0.4,2.6,1.8,4.9,3.9,6.5
					c2.1,1.6,4.7,2.2,7.3,1.8h0c2.6-0.4,4.9-1.8,6.5-3.9c1.6-2.1,2.2-4.7,1.8-7.3c-0.4-2.6-1.8-4.9-3.9-6.5
					C2032.1,314.5,2030.1,313.8,2027.9,313.8z"/>
				<linearGradient id="SVGID_62_" gradientUnits="userSpaceOnUse" x1="2133.0918" y1="-214.7418" x2="2064.085" y2="139.2936">
					<stop  offset="0" style="stop-color:#FF928E"/>
					<stop  offset="1" style="stop-color:#FEB3B1"/>
				</linearGradient>
				<path class="st67" d="M2028.3,368.4c-1.5,0-3.1-0.1-4.6-0.2c-3-0.3-6-0.9-8.9-1.8c-0.2-0.1-0.3-0.1-0.5-0.2
					c-0.8-0.3-1.4-1-1.4-1.9c0-0.2,0-0.4,0.1-0.6c0.3-1,1.4-1.6,2.5-1.3c2.8,0.9,5.6,1.5,8.5,1.8c6.3,0.6,12.5-0.2,18.2-2.3
					c4-1.5,7.9-3.6,11.3-6.3c0.1,0,0.1-0.1,0.2-0.1c0.1-0.1,0.2-0.2,0.3-0.3c8.5-6.9,13.8-16.7,14.9-27.6c0.1-1.4,0.2-2.8,0.2-4.2
					c0-9.4-3.2-18.5-9.2-25.8c-6.9-8.5-16.7-13.8-27.6-14.9c-10.9-1.1-21.6,2.1-30.1,9c-8.5,6.9-13.8,16.7-14.9,27.6
					c-0.1,1.4-0.2,2.8-0.2,4.2c0,6,1.3,11.9,3.9,17.4c0.1,0.3,0.2,0.6,0.2,0.8c0,0.7-0.4,1.5-1.1,1.8c-1,0.5-2.2,0-2.6-0.9
					c-2.8-6-4.2-12.5-4.2-19.1c0-1.5,0.1-3,0.2-4.6c1.2-11.9,7-22.7,16.3-30.3c9.3-7.6,21-11.1,33-9.9c11.9,1.2,22.7,7,30.3,16.3
					c6.6,8.1,10.1,18,10.1,28.3c0,1.5-0.1,3.1-0.2,4.6c-1.2,11.9-7,22.7-16.3,30.3C2048.5,364.9,2038.6,368.4,2028.3,368.4z"/>
			</g>
		</g>
		<g>
			<g class="st22">
				<linearGradient id="SVGID_63_" gradientUnits="userSpaceOnUse" x1="1137.8976" y1="545.8768" x2="1143.1107" y2="545.8768">
					<stop  offset="0" style="stop-color:#FE7062"/>
					<stop  offset="1" style="stop-color:#FF928E"/>
				</linearGradient>
				<path class="st68" d="M1141.1,550.2c-0.9,0-1.6-0.6-1.9-1.4c-0.5-1.6-0.9-3.2-1.3-4.9c-0.2-1.1,0.4-2.1,1.5-2.4
					c1.1-0.2,2.1,0.4,2.4,1.5c0.4,1.6,0.8,3.1,1.2,4.7c0.3,1-0.3,2.1-1.3,2.5C1141.5,550.2,1141.3,550.2,1141.1,550.2z"/>
				<linearGradient id="SVGID_64_" gradientUnits="userSpaceOnUse" x1="1135.5614" y1="483.6937" x2="1266.7997" y2="483.6937">
					<stop  offset="0" style="stop-color:#FE7062"/>
					<stop  offset="1" style="stop-color:#FF928E"/>
				</linearGradient>
				<path class="st69" d="M1138.1,535.6c-1,0-1.8-0.7-2-1.7c-0.4-3.4-0.6-6.8-0.6-10.2c0-1.1,0.9-2,2-2c0,0,0,0,0,0c1.1,0,2,0.9,2,2
					c0,3.3,0.2,6.5,0.6,9.8c0.1,1.1-0.6,2.1-1.7,2.2C1138.3,535.6,1138.2,535.6,1138.1,535.6z M1138,515.6c-0.1,0-0.1,0-0.2,0
					c-1.1-0.1-1.9-1.1-1.8-2.2c0.4-3.4,0.9-6.8,1.6-10.1c0.2-1.1,1.3-1.7,2.4-1.5c1.1,0.2,1.7,1.3,1.5,2.4c-0.7,3.2-1.2,6.4-1.6,9.7
					C1139.9,514.9,1139,515.6,1138,515.6z M1142.3,496.1c-0.2,0-0.4,0-0.6-0.1c-1-0.4-1.6-1.5-1.2-2.5c1.1-3.2,2.4-6.4,3.8-9.5
					c0.5-1,1.6-1.4,2.6-0.9c1,0.5,1.4,1.6,0.9,2.6c-1.4,2.9-2.6,6-3.7,9.1C1143.9,495.6,1143.2,496.1,1142.3,496.1z M1150.9,478.1
					c-0.4,0-0.7-0.1-1-0.3c-0.9-0.6-1.2-1.8-0.6-2.7c1.8-2.9,3.8-5.7,5.9-8.4c0.7-0.9,1.9-1,2.8-0.3c0.9,0.7,1,1.9,0.3,2.8
					c-2,2.6-3.9,5.3-5.6,8C1152.2,477.8,1151.5,478.1,1150.9,478.1z M1163.2,462.4c-0.5,0-1-0.2-1.4-0.6c-0.8-0.8-0.8-2,0-2.8
					c2.4-2.4,4.9-4.7,7.6-6.9c0.8-0.7,2.1-0.6,2.8,0.3c0.7,0.8,0.6,2.1-0.3,2.8c-2.5,2-5,4.3-7.2,6.6
					C1164.2,462.2,1163.7,462.4,1163.2,462.4z M1178.7,449.8c-0.7,0-1.3-0.3-1.7-0.9c-0.6-0.9-0.3-2.1,0.6-2.7
					c2.9-1.8,5.9-3.5,8.9-5c1-0.5,2.2-0.1,2.6,0.9c0.5,1,0.1,2.2-0.9,2.6c-2.9,1.4-5.8,3.1-8.5,4.8
					C1179.5,449.7,1179.1,449.8,1178.7,449.8z M1264.8,444.2c-0.3,0-0.6-0.1-0.8-0.2c-2.9-1.4-6-2.6-9.1-3.6c-1-0.3-1.6-1.5-1.2-2.5
					c0.3-1,1.5-1.6,2.5-1.2c3.2,1.1,6.4,2.4,9.5,3.8c1,0.5,1.4,1.6,0.9,2.6C1266.3,443.7,1265.6,444.2,1264.8,444.2z M1196.6,441
					c-0.8,0-1.6-0.5-1.9-1.3c-0.4-1,0.2-2.2,1.2-2.5c3.2-1.2,6.5-2.1,9.8-2.9c1.1-0.3,2.1,0.4,2.4,1.5c0.3,1.1-0.4,2.1-1.5,2.4
					c-3.2,0.8-6.3,1.7-9.4,2.8C1197.1,440.9,1196.9,441,1196.6,441z M1245.9,437.8c-0.1,0-0.3,0-0.4,0c-3.2-0.7-6.4-1.2-9.7-1.5
					c-1.1-0.1-1.9-1.1-1.8-2.2c0.1-1.1,1.1-1.8,2.2-1.8c3.4,0.3,6.8,0.9,10.1,1.6c1.1,0.2,1.7,1.3,1.5,2.4
					C1247.6,437.1,1246.8,437.8,1245.9,437.8z M1216.1,436.4c-1,0-1.8-0.7-2-1.7c-0.1-1.1,0.6-2.1,1.7-2.2c3.4-0.4,6.8-0.6,10.2-0.7
					c0,0,0,0,0,0c1.1,0,2,0.9,2,2c0,1.1-0.9,2-2,2c-3.2,0-6.5,0.2-9.8,0.6C1216.2,436.4,1216.1,436.4,1216.1,436.4z"/>
				<linearGradient id="SVGID_65_" gradientUnits="userSpaceOnUse" x1="1271.7385" y1="448.3354" x2="1279.8235" y2="448.3354">
					<stop  offset="0" style="stop-color:#FE7062"/>
					<stop  offset="1" style="stop-color:#FF928E"/>
				</linearGradient>
				<path class="st70" d="M1277.8,451.7c-0.4,0-0.8-0.1-1.1-0.4c-1.3-0.9-2.7-1.8-4-2.6c-0.9-0.6-1.2-1.8-0.6-2.7
					c0.6-0.9,1.8-1.2,2.7-0.6c1.4,0.9,2.8,1.8,4.2,2.8c0.9,0.6,1.1,1.9,0.5,2.8C1279.1,451.4,1278.5,451.7,1277.8,451.7z"/>
			</g>
			<g class="st22">
				<linearGradient id="SVGID_66_" gradientUnits="userSpaceOnUse" x1="1312.4895" y1="507.7079" x2="1317.291" y2="507.7079">
					<stop  offset="0" style="stop-color:#FE7062"/>
					<stop  offset="1" style="stop-color:#FF928E"/>
				</linearGradient>
				<path class="st71" d="M1315.3,512.1c-1,0-1.8-0.7-2-1.7c-0.2-1.6-0.5-3.2-0.8-4.8c-0.2-1.1,0.5-2.1,1.5-2.3
					c1.1-0.2,2.1,0.5,2.3,1.5c0.3,1.7,0.6,3.3,0.9,5c0.2,1.1-0.6,2.1-1.7,2.2C1315.5,512.1,1315.4,512.1,1315.3,512.1z"/>
				<linearGradient id="SVGID_67_" gradientUnits="userSpaceOnUse" x1="1183.1184" y1="566.1974" x2="1318.2201" y2="566.1974">
					<stop  offset="0" style="stop-color:#FE7062"/>
					<stop  offset="1" style="stop-color:#FF928E"/>
				</linearGradient>
				<path class="st72" d="M1227,614.4c-1.4,0-2.9,0-4.3-0.1c-1.1-0.1-1.9-1-1.9-2.1c0.1-1.1,1-2,2.1-1.9c3.2,0.1,6.4,0.1,9.6-0.1
					c1.1,0,2,0.8,2.1,1.8c0.1,1.1-0.8,2-1.8,2.1C1230.8,614.4,1228.9,614.4,1227,614.4z M1213,613.3c-0.1,0-0.2,0-0.3,0
					c-3.3-0.5-6.6-1.2-9.8-2.1c-1.1-0.3-1.7-1.4-1.4-2.4c0.3-1.1,1.4-1.7,2.4-1.4c3.1,0.8,6.2,1.5,9.4,2c1.1,0.2,1.8,1.2,1.6,2.3
					C1214.8,612.6,1214,613.3,1213,613.3z M1242.4,613.1c-0.9,0-1.8-0.7-1.9-1.6c-0.2-1.1,0.5-2.1,1.6-2.3c3.1-0.6,6.3-1.3,9.4-2.2
					c1.1-0.3,2.1,0.3,2.5,1.3c0.3,1-0.3,2.1-1.3,2.5c-3.2,0.9-6.5,1.7-9.8,2.3C1242.6,613.1,1242.5,613.1,1242.4,613.1z M1194,608.2
					c-0.2,0-0.5,0-0.7-0.1c-3.1-1.2-6.2-2.6-9.1-4.2c-1-0.5-1.3-1.7-0.8-2.7c0.5-1,1.7-1.3,2.7-0.8c2.8,1.5,5.8,2.9,8.7,4
					c1,0.4,1.5,1.5,1.1,2.6C1195.6,607.7,1194.8,608.2,1194,608.2z M1261.2,607.6c-0.8,0-1.5-0.5-1.8-1.2c-0.4-1,0.1-2.2,1.1-2.6
					c2.9-1.2,5.9-2.6,8.7-4.2c1-0.5,2.2-0.2,2.7,0.8c0.5,1,0.2,2.2-0.8,2.7c-2.9,1.6-6,3.1-9,4.4
					C1261.8,607.5,1261.5,607.6,1261.2,607.6z M1278.4,598.1c-0.6,0-1.2-0.3-1.6-0.8c-0.6-0.9-0.4-2.1,0.5-2.8
					c2.6-1.8,5.1-3.9,7.5-6c0.8-0.7,2.1-0.6,2.8,0.2c0.7,0.8,0.6,2.1-0.2,2.8c-2.5,2.2-5.2,4.3-7.9,6.2
					C1279.2,598,1278.8,598.1,1278.4,598.1z M1293.1,585c-0.5,0-0.9-0.2-1.3-0.5c-0.8-0.7-0.9-2-0.1-2.8c2.2-2.4,4.2-4.9,6.1-7.5
					c0.6-0.9,1.9-1.1,2.8-0.4c0.9,0.6,1.1,1.9,0.4,2.8c-2,2.7-4.1,5.3-6.3,7.8C1294.2,584.8,1293.7,585,1293.1,585z M1304.6,569.1
					c-0.3,0-0.7-0.1-1-0.3c-0.9-0.5-1.3-1.7-0.7-2.7c1.6-2.8,3-5.7,4.3-8.6c0.4-1,1.6-1.5,2.6-1c1,0.4,1.5,1.6,1,2.6
					c-1.3,3.1-2.8,6.1-4.5,9C1306,568.8,1305.3,569.1,1304.6,569.1z M1312.4,551.1c-0.2,0-0.4,0-0.6-0.1c-1-0.3-1.6-1.4-1.3-2.5
					c0.9-3.1,1.7-6.2,2.3-9.3c0.2-1.1,1.2-1.8,2.3-1.6c1.1,0.2,1.8,1.2,1.6,2.3c-0.6,3.3-1.4,6.6-2.4,9.8
					C1314,550.5,1313.2,551.1,1312.4,551.1z M1316,531.8c0,0-0.1,0-0.1,0c-1.1-0.1-1.9-1-1.8-2.1l0-0.5c0.1-2,0.2-4.1,0.2-6.1
					c0-1,0-2-0.1-3c0-1.1,0.8-2,1.9-2c1.1-0.1,2,0.8,2,1.9c0,1,0.1,2.1,0.1,3.1c0,2.1-0.1,4.3-0.2,6.4l0,0.5
					C1317.9,531,1317,531.8,1316,531.8z"/>
				<linearGradient id="SVGID_68_" gradientUnits="userSpaceOnUse" x1="1170.6146" y1="595.5162" x2="1178.569" y2="595.5162">
					<stop  offset="0" style="stop-color:#FE7062"/>
					<stop  offset="1" style="stop-color:#FF928E"/>
				</linearGradient>
				<path class="st73" d="M1176.6,598.9c-0.4,0-0.8-0.1-1.1-0.3c-1.4-0.9-2.7-1.9-4.1-3c-0.9-0.7-1-1.9-0.4-2.8
					c0.7-0.9,1.9-1,2.8-0.4c1.3,1,2.6,1.9,3.9,2.8c0.9,0.6,1.1,1.8,0.5,2.7C1177.8,598.6,1177.2,598.9,1176.6,598.9z"/>
			</g>
			<g>
				<linearGradient id="SVGID_69_" gradientUnits="userSpaceOnUse" x1="1163.2816" y1="673.7407" x2="1245.9811" y2="477.1602">
					<stop  offset="0" style="stop-color:#FE7062"/>
					<stop  offset="1" style="stop-color:#FF928E"/>
				</linearGradient>
				<path class="st74" d="M1178.6,571.9c0.3,0.4,0.8,0.5,1.2,0.3l12.2-4.5c4.8,3.7,10.3,6.7,16.2,8.7l3,12.7
					c0.1,0.4,0.5,0.8,0.9,0.8l15.6,1.6c0.5,0,0.9-0.2,1.1-0.6l5.5-11.8c6.2-0.8,12.2-2.6,17.6-5.3l11.1,6.9c0.4,0.2,0.9,0.2,1.2-0.1
					l12.1-9.9c0.4-0.3,0.5-0.8,0.3-1.2l-4.5-12.2c3.7-4.8,6.7-10.3,8.7-16.2l12.7-3c0.4-0.1,0.8-0.5,0.8-0.9l1.6-15.6
					c0-0.5-0.2-0.9-0.6-1.1l-11.8-5.5c-0.8-6.2-2.6-12.2-5.3-17.6l6.9-11.1c0.2-0.4,0.2-0.9-0.1-1.2l-9.9-12.1
					c-0.3-0.4-0.8-0.5-1.2-0.3l-12.2,4.5c-4.8-3.7-10.3-6.7-16.2-8.7l-3-12.7c-0.1-0.4-0.5-0.8-0.9-0.8l-15.6-1.6
					c-0.5,0-0.9,0.2-1.1,0.6l-5.5,11.8c-6.2,0.8-12.2,2.6-17.6,5.3l-11.1-6.9c-0.4-0.2-0.9-0.2-1.2,0.1l-12.1,9.9
					c-0.4,0.3-0.5,0.8-0.3,1.2l4.5,12.2c-3.7,4.8-6.7,10.3-8.7,16.2l-12.7,3c-0.4,0.1-0.8,0.5-0.8,0.9l-1.6,15.6
					c0,0.5,0.2,0.9,0.6,1.1l11.8,5.5c0.8,6.2,2.6,12.2,5.3,17.6l-6.9,11.1c-0.2,0.4-0.2,0.9,0.1,1.2L1178.6,571.9z"/>
				<linearGradient id="SVGID_70_" gradientUnits="userSpaceOnUse" x1="1248.8269" y1="207.3769" x2="1238.8269" y2="351.3769">
					<stop  offset="0" style="stop-color:#FF928E"/>
					<stop  offset="1" style="stop-color:#FEB3B1"/>
				</linearGradient>
				<path class="st75" d="M1226.9,538.3c-3.4,0-6.7-1.1-9.4-3.1c-3.4-2.5-5.6-6.2-6.2-10.4c-0.6-4.2,0.4-8.4,3-11.8
					c2.5-3.4,6.2-5.6,10.4-6.2c4.2-0.6,8.4,0.4,11.8,3c3.4,2.5,5.6,6.2,6.2,10.4c0.6,4.2-0.4,8.4-3,11.8c-2.5,3.4-6.2,5.6-10.4,6.2
					l0,0C1228.5,538.2,1227.7,538.3,1226.9,538.3z M1227,510.5c-0.6,0-1.2,0-1.8,0.1c-3.2,0.5-5.9,2.1-7.8,4.7
					c-1.9,2.6-2.7,5.7-2.2,8.9c0.5,3.2,2.1,5.9,4.7,7.8c2.6,1.9,5.7,2.7,8.9,2.2l0,0c6.5-1,11-7,10.1-13.5c-0.5-3.2-2.1-5.9-4.7-7.8
					C1232,511.3,1229.5,510.5,1227,510.5z"/>
				<linearGradient id="SVGID_71_" gradientUnits="userSpaceOnUse" x1="1249.0498" y1="207.3922" x2="1239.0498" y2="351.3919">
					<stop  offset="0" style="stop-color:#FF928E"/>
					<stop  offset="1" style="stop-color:#FEB3B1"/>
				</linearGradient>
				<path class="st76" d="M1227.2,561.9c-1.3,0-2.7-0.1-4-0.2h0c-2.6-0.3-5.2-0.8-7.7-1.6c0,0,0,0-0.1,0c-0.2,0-0.3-0.1-0.5-0.1
					c-0.8-0.3-1.4-1-1.4-1.9c0-0.2,0-0.4,0.1-0.6c0.3-1,1.4-1.6,2.5-1.3c2.4,0.8,4.9,1.3,7.5,1.6c0.1,0,0.2,0,0.2,0
					c13.9,1.3,26.8-5.6,33.8-16.8c2.7-4.3,4.5-9.3,5.1-14.6c0-0.2,0.1-0.4,0.1-0.6c0.1-1.2,0.2-2.4,0.2-3.6
					c0-18.1-13.8-33.7-32.2-35.6c-19.6-2-37.2,12.4-39.2,32c-0.1,1.2-0.2,2.4-0.2,3.6c0,5.2,1.1,10.4,3.4,15.2
					c0.1,0.3,0.2,0.6,0.2,0.8c0,0.7-0.4,1.5-1.1,1.8c-1,0.5-2.2,0-2.6-0.9c-2.5-5.3-3.8-11-3.8-16.9c0-1.3,0.1-2.7,0.2-4
					c2.2-21.8,21.8-37.8,43.6-35.5c20.5,2.1,35.7,19.4,35.7,39.5c0,1.3-0.1,2.7-0.2,4C1264.7,546.6,1247.4,561.9,1227.2,561.9z"/>
			</g>
		</g>
		<g>
			<g>
				<rect x="456" y="1342.7" class="st77" width="14.8" height="167.1"/>
				<path class="st77" d="M398.6,1513h129.8v-7.2c0-1.6-1.3-2.9-2.9-2.9H401.6c-1.7,0-3.1,1.4-3.1,3.1V1513z"/>
				<path class="st77" d="M374,1336.8c0,9.3,7.6,16.9,16.9,16.9h139.6c9.3,0,16.9-7.6,16.9-16.9v-15.3c0-9.3-7.6-16.9-16.9-16.9H391
					c-9.3,0-16.9,7.6-16.9,16.9V1336.8z"/>
			</g>
			<g>
				
					<linearGradient id="SVGID_72_" gradientUnits="userSpaceOnUse" x1="1310.9476" y1="1607.0522" x2="1284.7878" y2="1658.4999" gradientTransform="matrix(0.9764 -0.2161 0.2161 0.9764 -1003.8866 130.6689)">
					<stop  offset="0" style="stop-color:#09005D"/>
					<stop  offset="1" style="stop-color:#1A0F91"/>
				</linearGradient>
				<path class="st78" d="M594.8,1454.3c0,0,47.9,20.6,45.2,42.2c0,0-49.5-9.5-58.4-23.7c-8.9-14.2-4-22.4-4-22.4L594.8,1454.3z"/>
				
					<linearGradient id="SVGID_73_" gradientUnits="userSpaceOnUse" x1="1261.2009" y1="1627.5255" x2="1287.2615" y2="1627.5255" gradientTransform="matrix(0.9764 -0.2161 0.2161 0.9764 -1003.8866 130.6689)">
					<stop  offset="0" style="stop-color:#FF928E"/>
					<stop  offset="1" style="stop-color:#FEB3B1"/>
				</linearGradient>
				<path class="st79" d="M583.1,1430.7l-2.4,21c-0.4,3.2,1.4,6.3,4.4,7.4c1.5,0.5,3.5,0.9,6.1,0.9c3.7,0,6.9-2.4,7.9-5.9l4.7-17
					L583.1,1430.7z"/>
				
					<linearGradient id="SVGID_74_" gradientUnits="userSpaceOnUse" x1="1225.1349" y1="1558.5687" x2="1335.8806" y2="1403.3501" gradientTransform="matrix(0.9764 -0.2161 0.2161 0.9764 -1003.8866 130.6689)">
					<stop  offset="0" style="stop-color:#2B3582"/>
					<stop  offset="0.2305" style="stop-color:#252A70"/>
					<stop  offset="0.7285" style="stop-color:#19164F"/>
					<stop  offset="1" style="stop-color:#150E42"/>
				</linearGradient>
				<path class="st80" d="M478.4,1269.5c0,0,88.1-4.1,132,21.5c43.8,25.6-2.2,148.3-2.2,148.3s-11.5,2.5-27.9-6.4
					c0,0,23.5-89.8-17.3-105.5c-46-17.6-93.5-13.3-93.5-13.3l8.8-41.9L478.4,1269.5z"/>
				
					<linearGradient id="SVGID_75_" gradientUnits="userSpaceOnUse" x1="1295.7679" y1="1659.0682" x2="1205.0729" y2="1777.6693" gradientTransform="matrix(0.9764 -0.2161 0.2161 0.9764 -1003.8866 130.6689)">
					<stop  offset="0" style="stop-color:#09005D"/>
					<stop  offset="1" style="stop-color:#1A0F91"/>
				</linearGradient>
				<path class="st81" d="M630.4,1487.1c-10-2.2-39.7-14.5-44.2-14.3c-4.5,0.2-10.9,6.9-10.9,6.9s-1.1,3.7,2.1,9
					c7.7,6,24.1,16.9,43.3,18.1c14.1,0.9,22.6-4.7,27.4-10.2C643.9,1492.5,637,1488.5,630.4,1487.1z"/>
				
					<linearGradient id="SVGID_76_" gradientUnits="userSpaceOnUse" x1="1250.3805" y1="1684.7548" x2="1320.4581" y2="1684.7548" gradientTransform="matrix(0.9764 -0.2161 0.2161 0.9764 -1003.8866 130.6689)">
					<stop  offset="0" style="stop-color:#53D8FF"/>
					<stop  offset="1" style="stop-color:#3840F7"/>
				</linearGradient>
				<path class="st82" d="M620.7,1506.8c-19.2-1.2-35.7-12.2-43.3-18.1c2.2,3.6,6.3,7.9,14.2,12.3c19.4,10.9,51.4,9.4,57.8,6.9
					c5.1-2,3.5-6.7-1.1-11.3C643.3,1502.1,634.8,1507.7,620.7,1506.8z"/>
				
					<linearGradient id="SVGID_77_" gradientUnits="userSpaceOnUse" x1="1242.3562" y1="1651.576" x2="1266.8156" y2="1651.576" gradientTransform="matrix(0.9764 -0.2161 0.2161 0.9764 -1003.8866 130.6689)">
					<stop  offset="0" style="stop-color:#FF928E"/>
					<stop  offset="1" style="stop-color:#FEB3B1"/>
				</linearGradient>
				<path class="st83" d="M564.7,1468.6c0.7,2.5,7.7,9.9,11.7,14.1c1.9,2,4.7,2.8,7.4,2.2c1.7-0.4,3.6-1,5.3-1.9
					c2.5-1.4,3.4-4.5,2-7l-10.3-18.7L564.7,1468.6z"/>
				
					<linearGradient id="SVGID_78_" gradientUnits="userSpaceOnUse" x1="1185.2164" y1="1635.9194" x2="1191.3206" y2="1428.3813" gradientTransform="matrix(0.9764 -0.2161 0.2161 0.9764 -1003.8866 130.6689)">
					<stop  offset="0" style="stop-color:#09005D"/>
					<stop  offset="1" style="stop-color:#1A0F91"/>
				</linearGradient>
				<path class="st84" d="M391.1,1262.1c0,0-7.7,54.6,14.5,65.7c22.2,11.2,71,18.5,87.8,46.8c16.8,28.3,47,83.9,74.4,99.8
					c0,0,15.7-5.1,20.3-12.8c0,0-32.6-85.7-46.2-106.5c-11.8-18-29-44-53.5-55.3c-7-3.2-7.6-10.6-6.3-18.3l2.2-13.9L391.1,1262.1z"
					/>
				
					<linearGradient id="SVGID_79_" gradientUnits="userSpaceOnUse" x1="1117.4633" y1="1515.5396" x2="879.4633" y2="1700.5394" gradientTransform="matrix(0.9764 -0.2161 0.2161 0.9764 -1003.8866 130.6689)">
					<stop  offset="0" style="stop-color:#FE7062"/>
					<stop  offset="1" style="stop-color:#FF928E"/>
				</linearGradient>
				<path class="st85" d="M597.2,1200.2c-31.2,8.9-45.1-78.9-45-81l-47.8,55.9c0,0,28.5,50.1,71.5,55.5c10.9,1.3,20.1-0.5,27.9-4.1
					C598.1,1217.1,596.8,1207.9,597.2,1200.2z"/>
				
					<linearGradient id="SVGID_80_" gradientUnits="userSpaceOnUse" x1="1330.3818" y1="1394.1326" x2="1415.7028" y2="1394.1326" gradientTransform="matrix(0.9764 -0.2161 0.2161 0.9764 -1003.8866 130.6689)">
					<stop  offset="0" style="stop-color:#FF928E"/>
					<stop  offset="1" style="stop-color:#FEB3B1"/>
				</linearGradient>
				<path class="st86" d="M655,1171.5c-13.6-5.6-25.1,5.6-25.1,5.6c-13.5,13.8-24.1,20.7-32.6,23.2c-0.4,7.7,0.9,16.9,6.6,26.3
					c16.8-7.7,26.6-23.3,30.6-31c1.5-2.8,4.9-4,7.7-2.6c2.9,1.4,5.8,3.5,6,6.4c0.4,5.7,7.1,6,7.2,3.9c0-2.1-5.2-13.3-5.2-13.3
					s15.6,10,21.7,13.8c6.1,3.8,11.3-2.5,11.3-2.5S668.6,1177.1,655,1171.5z"/>
				
					<linearGradient id="SVGID_81_" gradientUnits="userSpaceOnUse" x1="-1811.2982" y1="2959.7146" x2="-2049.2981" y2="3144.7144" gradientTransform="matrix(-1 0 0 1 937.3225 0)">
					<stop  offset="0" style="stop-color:#FE7062"/>
					<stop  offset="1" style="stop-color:#FF928E"/>
				</linearGradient>
				<path class="st87" d="M403.1,1083.1c0,0,41.9-28.6,143.1,23.1c0,0,10.4,13.2,5.5,28.1c-4.9,14.9-65,95.5-67.3,133.3
					c0,0-41.1,24.2-94.4,0.2C390.1,1267.9,372.2,1168,403.1,1083.1z"/>
				
					<linearGradient id="SVGID_82_" gradientUnits="userSpaceOnUse" x1="1235.6689" y1="1243.6094" x2="1292.2773" y2="1243.6094" gradientTransform="matrix(0.9764 -0.2161 0.2161 0.9764 -1003.8866 130.6689)">
					<stop  offset="0" style="stop-color:#FF928E"/>
					<stop  offset="1" style="stop-color:#FEB3B1"/>
				</linearGradient>
				<path class="st88" d="M490.4,1046.6l-16.6,32.4c-1.6,3.2-1.3,7.1,1,9.9c4.6,5.7,14.1,13.4,30.3,8.4c4.8-1.5,8.5-5.4,9.7-10.3
					l8.6-36.2L490.4,1046.6z"/>
				
					<linearGradient id="SVGID_83_" gradientUnits="userSpaceOnUse" x1="-1789.0638" y1="2988.3345" x2="-2027.0641" y2="3173.3345" gradientTransform="matrix(-1 0 0 1 937.3225 0)">
					<stop  offset="0" style="stop-color:#FE7062"/>
					<stop  offset="1" style="stop-color:#FF928E"/>
				</linearGradient>
				<path class="st89" d="M372.1,1196.4c-2.8-19.7,49.3-58,49.3-58l-18.3-55.3c0,0-99.5,71-78.5,128.9c3,8.3,7.5,14.4,12.9,18.7
					C348,1209.1,362.3,1200.1,372.1,1196.4z"/>
				<linearGradient id="SVGID_84_" gradientUnits="userSpaceOnUse" x1="439.8549" y1="1048.5677" x2="427.855" y2="1133.5676">
					<stop  offset="0" style="stop-color:#FF928E"/>
					<stop  offset="1" style="stop-color:#FEB3B1"/>
				</linearGradient>
				<path class="st90" d="M444.8,1201.9c0,0-59,16.5-71.2-1.5c-0.8-1.2-1.3-2.6-1.5-4c-9.8,3.7-24.1,12.7-34.6,34.3
					c28,22,82-2.7,96.6-10.1c2.4-1.2,5.2-1.5,7.8-0.7c5.2,1.6,14.3,4.2,19.3,3.9c7.4-0.4,15.3,26.2,27.8,19.5
					C489,1243.4,483.3,1197.9,444.8,1201.9z"/>
				<g>
					
						<linearGradient id="SVGID_85_" gradientUnits="userSpaceOnUse" x1="11477.3496" y1="1025.7255" x2="11410.7109" y2="1113.8826" gradientTransform="matrix(1 0 0 1 -10942.123 0)">
						<stop  offset="0" style="stop-color:#FF928E"/>
						<stop  offset="1" style="stop-color:#FEB3B1"/>
					</linearGradient>
					<path class="st91" d="M548.3,1025.3c0,0.9-19.6,55.6-19.6,55.6l-31-11.9l10.9-54.6C508.6,1014.4,548.3,1010.6,548.3,1025.3z"/>
					
						<linearGradient id="SVGID_86_" gradientUnits="userSpaceOnUse" x1="-211.6202" y1="979.6551" x2="-248.6347" y2="1161.2577" gradientTransform="matrix(-1 0 0 1 301.9253 0)">
						<stop  offset="0" style="stop-color:#09005D"/>
						<stop  offset="1" style="stop-color:#1A0F91"/>
					</linearGradient>
					<path class="st92" d="M514,1027.7l-8,28.3c-0.1,0.4-0.2,0.7-0.2,1.1c0,2.3,0.6,10.2,8.7,9.2c7.3-1,14-1.8,18.3,0.2
						c1.9,0.9,2.8,3.1,2.1,5.1c-1.8,5-6,16.1-11.2,25.2c-1,1.8-3.3,2.6-5.3,1.7c-5.8-2.6-17.9-8.6-26.6-15.6c-1.2-1-1.7-2.5-1.5-3.9
						c1.4-7.2,5.4-29.2,5.6-35.5c0.2-5.9-6.5-10.4-9.4-12.1c-1-0.6-1.6-1.5-1.9-2.6c-0.9-3.8-1.7-12.4,9.3-14.3
						c2.3-0.4,3.8-2.6,3.3-4.9c-0.9-4.6-0.6-11.3,8-13.7c8.8-2.5,14.3,2.8,17.1,6.8c1.1,1.6,3.3,2.2,5.1,1.4c1-0.5,2.3-0.5,3.6,0.7
						c1.8,1.5,4.6,1.1,5.9-0.9c2.6-3.8,7.2-7.5,15.1-5c14,4.5,13.3,20.7,8.2,29.4s-20,3-27.1-2.8c-5.4-4.4-13.5-1.8-17.1-0.3
						C515.2,1025.6,514.4,1026.5,514,1027.7z"/>
					
						<linearGradient id="SVGID_87_" gradientUnits="userSpaceOnUse" x1="11382.4404" y1="1094.5621" x2="11434.2793" y2="1041.3768" gradientTransform="matrix(1 0 0 1 -10942.123 0)">
						<stop  offset="0" style="stop-color:#FF928E"/>
						<stop  offset="1" style="stop-color:#FEB3B1"/>
					</linearGradient>
					<path class="st93" d="M494.9,1053.9c0,0,6.7-15.9,1.2-20.8c-5.5-4.9-13.1-3.2-12.9,9C483.6,1057.4,494.9,1053.9,494.9,1053.9z"
						/>
				</g>
			</g>
			<g>
				
					<linearGradient id="SVGID_88_" gradientUnits="userSpaceOnUse" x1="10841.7959" y1="1827.4254" x2="10730.8184" y2="1857.8413" gradientTransform="matrix(-0.9988 -4.940000e-02 -4.940000e-02 0.9988 11415.7715 -86.798)">
					<stop  offset="0" style="stop-color:#09005D"/>
					<stop  offset="1" style="stop-color:#1A0F91"/>
				</linearGradient>
				<path class="st94" d="M520.1,1239.4c0.1,0,0.2,0,0.3,0l137.7-0.2c3.4,0,6.2-2.8,6.2-6.2c0-3.4-2.8-6.2-6.2-6.2l-137.7,0.2
					c-3.4,0-6.2,2.8-6.2,6.2C514.2,1236.6,516.8,1239.3,520.1,1239.4z"/>
				<linearGradient id="SVGID_89_" gradientUnits="userSpaceOnUse" x1="888.5342" y1="1285.1006" x2="669.5342" y2="1166.1008">
					<stop  offset="0" style="stop-color:#09005D"/>
					<stop  offset="1" style="stop-color:#1A0F91"/>
				</linearGradient>
				<path class="st95" d="M782,1114.4H667.2c-8.5,0-16.2,4.9-19.8,12.5l-53,112.4H737c5.5,0,10.4-3.3,12.4-8.4l41.1-104.1
					C792.9,1120.9,788.4,1114.4,782,1114.4z"/>
				
					<linearGradient id="SVGID_90_" gradientUnits="userSpaceOnUse" x1="10729.9258" y1="1151.8806" x2="10694.1973" y2="1205.6837" gradientTransform="matrix(-1 0 0 1 11424.4424 0)">
					<stop  offset="0" style="stop-color:#4042E2"/>
					<stop  offset="1" style="stop-color:#4F52FF"/>
				</linearGradient>
				<path class="st96" d="M701.1,1172c-2.5,7.7-0.6,15.2,4.1,16.8c4.8,1.5,10.6-3.5,13.1-11.2c2.5-7.7,0.6-15.2-4.1-16.8
					C709.5,1159.3,703.6,1164.3,701.1,1172z"/>
			</g>
			<g>
				<g>
					<path class="st77" d="M763.4,1513c0.8,0,1.5-0.1,2.3-0.4c2.9-1.1,4.3-4.2,3-6.8l-121.4-251.9c-1.3-2.6-4.7-3.8-7.6-2.7
						c-2.9,1.1-4.3,4.2-3,6.8L758,1509.9C759,1511.8,761.1,1513,763.4,1513z"/>
					<path class="st77" d="M626.6,1513c2.2,0,4.4-1.2,5.3-3.1L753.3,1258c1.3-2.6-0.1-5.7-3-6.8c-2.9-1.1-6.3,0.1-7.6,2.7
						l-121.4,251.9c-1.3,2.6,0.1,5.7,3,6.8C625.1,1512.9,625.8,1513,626.6,1513z"/>
					<path class="st77" d="M387.6,1513c0.8,0,1.5-0.1,2.3-0.4c2.9-1.1,4.3-4.2,3-6.8l-121.4-251.9c-1.3-2.6-4.7-3.8-7.6-2.7
						c-2.9,1.1-4.3,4.2-3,6.8l121.4,251.9C383.2,1511.8,385.4,1513,387.6,1513z"/>
					<path class="st77" d="M250.8,1513c2.2,0,4.4-1.2,5.3-3.1L377.6,1258c1.3-2.6-0.1-5.7-3-6.8c-2.9-1.1-6.3,0.1-7.6,2.7
						l-121.4,251.9c-1.3,2.6,0.1,5.7,3,6.8C249.3,1512.9,250.1,1513,250.8,1513z"/>
				</g>
				<path class="st4" d="M236.6,1245.6c-0.3-1.8,0.1-3.7,1.1-5.2c1-1.4,2.6-2.3,4.2-2.3h552.2c2.1,0,4.1,1.3,5.3,3.3
					c1.2,2.1,1.3,4.7,0.4,6.9l-6,14.9c-1.4,3.4-4.3,5.6-7.6,5.6H245.8c-3,0-5.7-2.5-6.2-5.9L236.6,1245.6z"/>
			</g>
		</g>
		<g>
			<g>
				<path class="st77" d="M1901.5,1454.1c0,0,194-61.7,191.9-218.5c-1.9-143.3-61.8-260.7-72-279.8c-0.6-1.2,0.1-2.7,1.5-2.8
					c6.7-0.8,21.5-5.9,10.7-37.3c-13.6-39.7-52.4-102.7-75.8-101.7c-23.4,1-5.5,49.9,17.9,88.2c23.4,38.3,32.4,53.7,32.4,53.7
					S2240.5,1325.6,1901.5,1454.1z"/>
				<path class="st4" d="M2022.1,943.3c-0.8,0-1.6-0.3-2.2-1c-1.1-1.2-1-3.1,0.2-4.2c2.8-2.5,4.1-6.7,3.7-11.4
					c-0.4-4.6-2.3-9-4.4-13.5c-10.6-23.1-23.7-45.1-38.9-65.4c-4.9-6.5-11.5-13.9-19.4-13.4c-1.6,0.1-3-1.1-3.1-2.8
					c-0.1-1.6,1.1-3,2.8-3.1c10.7-0.7,18.7,8.1,24.5,15.8c15.5,20.6,28.8,43,39.6,66.5c2.3,5,4.4,9.9,4.9,15.4
					c0.6,6.6-1.5,12.7-5.7,16.4C2023.5,943.1,2022.8,943.3,2022.1,943.3z"/>
			</g>
			<g>
				<path class="st77" d="M1945.2,885.7c0,0,9.9-24.1-31.6-61.3c-36.6-32.7-65.3-49.6-78.3-32.1c-13,17.5,66.2,83.8,103.4,96.9
					c0,0,285.9,376.9-37.1,564.9C1901.5,1454.1,2237.7,1332.4,1945.2,885.7z"/>
				<path class="st4" d="M1934,872.3c-1.5,0-2.8-1.2-3-2.7c-1.4-17.5-38.7-53.8-72.5-70.5c-1.9-1-10.7-2.1-13.1-1.3
					c-0.3,0.8,0.6,2.7,2.4,4.5c6.8,6.7,14.6,12.2,23.3,16.3c1.5,0.7,2.1,2.5,1.4,3.9c-0.7,1.5-2.5,2.1-3.9,1.4
					c-9.3-4.3-17.7-10.2-25-17.4c-4.5-4.4-5.5-9.5-2.6-12.8c3.6-4.1,17.6-1.2,20,0c32.8,16.3,74,53.5,75.7,75.3
					c0.1,1.6-1.1,3.1-2.7,3.2C1934.1,872.3,1934,872.3,1934,872.3z"/>
			</g>
			<g>
				<path class="st3" d="M2377.7,1029.3c3.1-3.3,0.2-8.6-4.3-7.8c-45.2,8.5-163.7,44.7-235.3,194.4
					c-89.8,187.8-166.7,228.2-236.6,238.2c0,0,73.7,21.3,153.8-18.3C2252.2,1338.5,2321.8,1087.2,2377.7,1029.3z"/>
				<path class="st4" d="M2321.6,1070.8c-3.8,2.6-7.5,5.8-11.2,8.8l-5.4,4.7c-1.8,1.6-3.5,3.3-5.3,4.9c-3.5,3.2-6.8,6.7-10.2,10.1
					l-9.8,10.5c-12.9,14.1-24.8,29.3-35.9,44.9c-2.7,3.9-5.6,7.8-8.3,11.8l-8,12c-2.7,3.9-5.2,8.1-7.7,12.1l-7.6,12.2
					c-4.7,8.3-9.7,16.5-14.3,25c-4.6,8.5-8.9,16.8-13.6,25.4c-18.5,34.5-40.4,67.3-65.7,97.1c-12.6,15-25.7,29.5-39.6,43.2
					c-3.5,3.4-7.1,6.8-10.6,10.2c-3.6,3.3-7.2,6.6-10.8,9.9c-7.4,6.5-14.7,12.8-22.8,18.9c-3,2.3-7.3,1.7-9.6-1.3
					c-2.2-2.9-1.7-7.1,1.1-9.4l0.2-0.1c3.5-2.9,7.2-6,10.8-9.1c3.6-3.1,7.1-6.3,10.7-9.5c3.5-3.3,7-6.5,10.4-9.8
					c3.4-3.4,6.8-6.7,10.2-10.1c13.5-13.5,26.4-27.7,38.6-42.3c6.2-7.3,12-14.9,17.9-22.3c2.9-3.8,5.7-7.7,8.5-11.5l4.2-5.8
					c1.4-1.9,2.7-3.9,4.1-5.9l8.1-11.8c2.7-4,5.1-8.1,7.7-12.1c5.2-8,9.8-16.4,14.6-24.6l14.4-25.3l1.8-3.2l1.9-3.1l3.8-6.2
					l7.7-12.5c10.8-16.3,21.6-32.5,33.9-47.7c12.1-15.3,24.8-30.1,38.6-43.9l10.6-10.1c3.7-3.2,7.2-6.6,11-9.6
					c7.5-6.3,15.2-12.2,23.7-17.3c0.9-0.5,2-0.2,2.5,0.6C2322.7,1069.1,2322.4,1070.2,2321.6,1070.8L2321.6,1070.8z"/>
			</g>
		</g>
		<g>
			<g>
				<linearGradient id="SVGID_91_" gradientUnits="userSpaceOnUse" x1="1545.6097" y1="711.3704" x2="1599.8389" y2="855.0778">
					<stop  offset="0" style="stop-color:#FF928E"/>
					<stop  offset="1" style="stop-color:#FEB3B1"/>
				</linearGradient>
				<path class="st97" d="M1531.5,736.3l10.7,10.5c15.1-1.5,26.8-6.2,35.7-12.1c-5.4-13.4-10.9-21.3-15.2-26
					C1548.7,728.4,1531.5,736.3,1531.5,736.3z"/>
				<linearGradient id="SVGID_92_" gradientUnits="userSpaceOnUse" x1="1619.2842" y1="627.5213" x2="1481.2844" y2="896.5212">
					<stop  offset="0" style="stop-color:#FE7062"/>
					<stop  offset="1" style="stop-color:#FF928E"/>
				</linearGradient>
				<path class="st98" d="M1605.7,696.9l-25.1-39.3c-1.6,22.2-9.1,38.8-17.8,51c4.3,4.7,9.8,12.6,15.2,26
					C1600.2,719.7,1605.7,696.9,1605.7,696.9z"/>
			</g>
			<path class="st77" d="M1632.4,1007.7c-12.5,0.6-24.7,0.2-32.8-0.2c7.4-5.3,24.4-16.7,38.6-21.2l9.8-0.6c0,0,3.3,5,4.5,16.5
				C1650.9,1004.2,1646.1,1007,1632.4,1007.7z"/>
			<path class="st3" d="M1599.5,1007.5c0,0,0.1,0,0.1-0.1c8.1,0.4,20.2,0.8,32.8,0.2c13.7-0.6,18.5-3.4,20.1-5.5
				c0.1,0.5,0.1,1.1,0.2,1.6c0.2,2.5-1.7,4.7-4.2,4.9c-10.3,0.8-35.7,2.5-48,1.9C1598.8,1010.6,1598.2,1008.5,1599.5,1007.5z"/>
			<path class="st77" d="M1722.1,1004.3c0.9-5.9,2.4-14.4,3.5-16.6c1.8-3.4,7.9,0,7.9,0s4.3,2,6.3,5.3c1.3,2.1,4.7,8.2,7.1,12.3
				c0.3,0.5,0.4,1,0.4,1.5l-24.5,0.9C1722.2,1006.7,1721.9,1005.5,1722.1,1004.3z"/>
			<path class="st3" d="M1747.2,1006.8c0,1.4-1.1,2.7-2.7,2.7l-17.4,0.5c-1.8,0.1-3.4-0.9-4.3-2.3L1747.2,1006.8z"/>
			
				<linearGradient id="SVGID_93_" gradientUnits="userSpaceOnUse" x1="6060.8765" y1="979.5773" x2="6077.2339" y2="979.5773" gradientTransform="matrix(-1 0 0 1 7797.4424 0)">
				<stop  offset="0" style="stop-color:#FF928E"/>
				<stop  offset="1" style="stop-color:#FEB3B1"/>
			</linearGradient>
			<path class="st99" d="M1720.2,968.2c0.2,0.7,3.4,16,4.8,22.8c0.4,1.9,2.1,3.2,4,3.1c1-0.1,2.2-0.1,3.5-0.3c2.2-0.3,3.9-2.2,4-4.4
				c0.2-5.9,0.3-17.2-1.8-21.6C1731.6,961.7,1720.2,968.2,1720.2,968.2z"/>
			
				<linearGradient id="SVGID_94_" gradientUnits="userSpaceOnUse" x1="6147.5308" y1="978.5066" x2="6161.1641" y2="978.5066" gradientTransform="matrix(-1 0 0 1 7797.4424 0)">
				<stop  offset="0" style="stop-color:#FF928E"/>
				<stop  offset="1" style="stop-color:#FEB3B1"/>
			</linearGradient>
			<path class="st100" d="M1649.9,972.6c-1.4,0,0.5,7-1.5,13.9c-0.5,1.6-1.6,2.8-3.3,2.8c-1.1,0-2.3,0-3.6-0.1
				c-1.9-0.2-3.4-1.6-3.6-3.5l-1.7-18L1649.9,972.6z"/>
			<linearGradient id="SVGID_95_" gradientUnits="userSpaceOnUse" x1="1673.5854" y1="938.3785" x2="1677.6525" y2="687.5689">
				<stop  offset="0" style="stop-color:#09005D"/>
				<stop  offset="1" style="stop-color:#1A0F91"/>
			</linearGradient>
			<path class="st101" d="M1612,781.7c0.6,2.9,22,127.5,23.3,192c0,1.1,0.8,2,1.9,2.1c2.7,0.4,8,0.9,13.1-0.1
				c0.7-0.1,1.2-0.7,1.3-1.4c0.7-12,6.7-113.6-0.6-161.4c0,0,60.7,127.8,69.9,163c0.2,0.9,1,1.4,1.9,1.4c2.6-0.1,8-0.6,12.3-2.2
				c1.5-0.6,2.4-2.2,2-3.8c-5.1-21.1-41.2-166.4-65.7-198.4L1612,781.7z"/>
			
				<linearGradient id="SVGID_96_" gradientUnits="userSpaceOnUse" x1="6181.4316" y1="768.9111" x2="6125.6338" y2="841.0502" gradientTransform="matrix(-1 0 0 1 7797.4424 0)">
				<stop  offset="0" style="stop-color:#09005D"/>
				<stop  offset="1" style="stop-color:#1A0F91"/>
			</linearGradient>
			<path class="st102" d="M1650.9,813.7c0.2,0,0.4-0.1,0.6-0.2c0.3-0.3,0.3-0.8,0-1.1l-8.1-8.3c-0.3-0.3-0.8-0.3-1.1,0
				c-0.3,0.3-0.3,0.8,0,1.1l8.1,8.3C1650.5,813.7,1650.7,813.7,1650.9,813.7z"/>
			<linearGradient id="SVGID_97_" gradientUnits="userSpaceOnUse" x1="1651.5989" y1="644.099" x2="1513.5992" y2="913.0986">
				<stop  offset="0" style="stop-color:#FE7062"/>
				<stop  offset="1" style="stop-color:#FF928E"/>
			</linearGradient>
			<path class="st103" d="M1577.3,625.8c15.6-4.1,44.4-10.5,67.3-9.1c5.3,0.3,9.5,4.5,9.8,9.7c3.5,61,8.2,115.1,17.1,146.6
				c-20,7.9-39.9,11.6-59.4,8.7c-14.7-31.4-27.5-67.7-38.4-108.9c0,0-6.4-32.8-0.2-43.8C1574.3,627.4,1575.6,626.2,1577.3,625.8z"/>
			<linearGradient id="SVGID_98_" gradientUnits="userSpaceOnUse" x1="1598.0511" y1="578.324" x2="1613.3844" y2="649.9904">
				<stop  offset="0" style="stop-color:#FF928E"/>
				<stop  offset="1" style="stop-color:#FEB3B1"/>
			</linearGradient>
			<path class="st104" d="M1614.8,583c0,0,3.9,23.5,5.1,34.4c0.2,1.8-0.7,3.4-2.3,4.2c-4.3,2.2-13.5,5.8-23.5,2.5
				c-1.6-0.5-2.7-2.1-2.7-3.9l0.7-31.4L1614.8,583z"/>
			<g>
				
					<linearGradient id="SVGID_99_" gradientUnits="userSpaceOnUse" x1="5229.0732" y1="3280.2903" x2="5244.7397" y2="3236.6235" gradientTransform="matrix(-1 0 0 1 7797.4424 0)">
					<stop  offset="0" style="stop-color:#FF928E"/>
					<stop  offset="1" style="stop-color:#FEB3B1"/>
				</linearGradient>
				<path class="st105" d="M1589.1,557c0,0-7.6,17.5-8.1,26.6c-0.5,9.2-2.5,15.1,8.1,17c10.6,1.8,19.5-3.4,24.4-12.6
					c0,0,7.6-14.1,5.9-19.8C1617.6,562.4,1589.1,557,1589.1,557z"/>
				<linearGradient id="SVGID_100_" gradientUnits="userSpaceOnUse" x1="1617.8561" y1="515.2806" x2="1611.5227" y2="538.9473">
					<stop  offset="0" style="stop-color:#09005D"/>
					<stop  offset="1" style="stop-color:#1A0F91"/>
				</linearGradient>
				<path class="st106" d="M1609.8,581.4h-1.3c0,0,5.5-11.3,0.7-13.3c-4.8-2-24.1-5.9-28.2-12.7c-4-6.6-0.4-15.1,4.9-17.4
					c0.3-0.2,0.7,0,0.9,0.3l0.4,0.8c0.3,0.6,1.1,0.5,1.3-0.1l0,0c0.2-0.6,1-0.7,1.3-0.2c1.3,2,4.7,5.4,13.9,7.1
					c13.1,2.4,21.7,7.7,21.9,16.7c0,0.6,0.6,0.9,1.1,0.6c1-0.6,2.5-0.9,4.6,0.9c3.6,3,2.1,10.8-5.7,17.3c-0.4,0.3-0.4,0.9,0,1.2
					c1.4,0.9,3.6,3.1-2,6.1c-5.6,3-9,2.7-10.2,2.4c-0.3-0.1-0.6-0.4-0.5-0.7l0.5-8c0-0.4-0.3-0.8-0.7-0.8H1609.8z"/>
				
					<linearGradient id="SVGID_101_" gradientUnits="userSpaceOnUse" x1="5216.3184" y1="3275.7112" x2="5231.9849" y2="3232.0444" gradientTransform="matrix(-1 0 0 1 7797.4424 0)">
					<stop  offset="0" style="stop-color:#FF928E"/>
					<stop  offset="1" style="stop-color:#FEB3B1"/>
				</linearGradient>
				<path class="st107" d="M1609.5,583.1c0,0,2.9-11.2,7.9-8c5,3.1-2.6,12.5-6.6,12.9L1609.5,583.1z"/>
			</g>
			<g>
				<g>
					<path class="st77" d="M1769.7,764.1l-307.6-63.8l-7.8,30.8l301,90.1c0.7,0.2,1.3,0.4,2,0.6l10.3,2.6
						c17.6,4.5,34.3-1.6,37.3-13.4l3.6-14.1c3-11.9-8.8-25.1-26.5-29.6l-10.3-2.6C1771.1,764.4,1770.4,764.2,1769.7,764.1z
						 M1787.7,799c-2,7.9-14.4,11.5-27.6,8.2c-13.3-3.4-22.4-12.5-20.4-20.3c2-7.9,14.4-11.5,27.6-8.2
						C1780.6,782,1789.7,791.1,1787.7,799z"/>
				</g>
				<path class="st77" d="M1362,658.5l59.6,15.1c4.2,1.1,7.7,4.1,9.5,8.1l8.9,20.6c2.5,5.9,0.8,12.7-4.2,16.7l-17.6,13.9
					c-3.4,2.7-7.9,3.7-12.2,2.6l-59.6-15.1c-9-2.3-16.6,7.1-12.4,15.3c10.1,19.7,28.8,35.3,52.5,41.3c42.8,10.8,80.7-15.1,91.1-56.3
					s-10.6-82-53.4-92.9c-23.7-6-47.5-1.1-65.8,11.4C1350.8,644.4,1353,656.2,1362,658.5z"/>
				<path class="st4" d="M1360.6,664.1l59.6,15.1c4.2,1.1,7.7,4.1,9.5,8.1l8.9,20.6c2.5,5.9,0.8,12.7-4.2,16.7l-17.6,13.9
					c-3.4,2.7-7.9,3.7-12.2,2.6l-59.6-15.1c-9-2.3-16.6,7.1-12.4,15.3c10.1,19.7,28.8,35.3,52.5,41.3c42.8,10.8,80.7-15.1,91.1-56.3
					s-10.6-82-53.4-92.9c-23.7-6-47.5-1.1-65.8,11.4C1349.4,650,1351.6,661.9,1360.6,664.1z"/>
				<g>
					<path class="st4" d="M1768.6,768.6L1461,704.8l-7.8,30.8l301,90.1c0.7,0.2,1.3,0.4,2,0.6l10.3,2.6c17.6,4.5,34.3-1.6,37.3-13.4
						l3.6-14.1c3-11.9-8.8-25.1-26.5-29.6l-10.3-2.6C1769.9,768.9,1769.3,768.7,1768.6,768.6z M1786.6,803.5
						c-2,7.9-14.4,11.5-27.6,8.2s-22.4-12.5-20.4-20.3c2-7.9,14.4-11.5,27.6-8.2C1779.5,786.5,1788.6,795.6,1786.6,803.5z"/>
				</g>
			</g>
			<g>
				<linearGradient id="SVGID_102_" gradientUnits="userSpaceOnUse" x1="1745.0017" y1="579.408" x2="1735.0017" y2="615.408">
					<stop  offset="0" style="stop-color:#FF928E"/>
					<stop  offset="1" style="stop-color:#FEB3B1"/>
				</linearGradient>
				<path class="st108" d="M1694.7,707c7.7,21.6,3.4,44.8,3.4,44.8l10.2,2.7c0,0,13.1-15.6,10.1-50.3
					C1709,702.8,1700.2,705,1694.7,707z"/>
				<linearGradient id="SVGID_103_" gradientUnits="userSpaceOnUse" x1="1683.2559" y1="660.3394" x2="1545.2559" y2="929.3399">
					<stop  offset="0" style="stop-color:#FE7062"/>
					<stop  offset="1" style="stop-color:#FF928E"/>
				</linearGradient>
				<path class="st109" d="M1718.4,704.3c-0.3-3.9-0.9-8-1.7-12.4c-6.9-38.2-55.9-67.6-67.4-74.1c-1.1-0.6-2.4,0.2-2.3,1.4l1.6,52
					c27.3,3.7,40.2,19.3,46.1,35.8C1700.2,705,1709,702.8,1718.4,704.3z"/>
			</g>
			<linearGradient id="SVGID_104_" gradientUnits="userSpaceOnUse" x1="1547.3185" y1="674.122" x2="1535.3184" y2="705.4554">
				<stop  offset="0" style="stop-color:#FF928E"/>
				<stop  offset="1" style="stop-color:#FEB3B1"/>
			</linearGradient>
			<path class="st110" d="M1510.1,755.3c-1.9-0.5-3.5-1.9-4.3-3.7c-1.6-3.5-3.3-9.1,0.4-10.8c5.6-2.5,15.8,7.9,15.8,7.9l5,8.1
				l4.5,2.2C1527.3,760.1,1519.3,758.2,1510.1,755.3z"/>
			<linearGradient id="SVGID_105_" gradientUnits="userSpaceOnUse" x1="1746.9132" y1="579.939" x2="1736.9133" y2="615.939">
				<stop  offset="0" style="stop-color:#FF928E"/>
				<stop  offset="1" style="stop-color:#FEB3B1"/>
			</linearGradient>
			<path class="st111" d="M1698.7,746.8h-12.6c0,0,10.2,6.1,10.5,12.5c0.3,6.4-4,19.8-6.1,23.4c-2.2,4,28.5-5.9,17.6-35.9H1698.7z"
				/>
		</g>
	</g>
</g>
</svg>
